<?xml version="1.0" encoding="UTF-8" standalone="no"?>
<!DOCTYPE svg PUBLIC "-//W3C//DTD SVG 1.1//EN"
 "http://www.w3.org/Graphics/SVG/1.1/DTD/svg11.dtd">
<!-- Generated by graphviz version 2.38.0 (20140413.2041)
 -->
<!-- Title: SC2API/include/Cheats.h Pages: 1 -->
<svg width="493pt" height="196pt"
 viewBox="0.00 0.00 493.00 196.00" xmlns="http://www.w3.org/2000/svg" xmlns:xlink="http://www.w3.org/1999/xlink">
<g id="graph0" class="graph" transform="scale(1 1) rotate(0) translate(4 192)">
<title>SC2API/include/Cheats.h</title>
<polygon fill="white" stroke="none" points="-4,4 -4,-192 489,-192 489,4 -4,4"/>
<!-- Node1 -->
<g id="node1" class="node"><title>Node1</title>
<polygon fill="#bfbfbf" stroke="black" points="192,-168.5 192,-187.5 319,-187.5 319,-168.5 192,-168.5"/>
<text text-anchor="middle" x="255.5" y="-175.5" font-family="Helvetica,sans-Serif" font-size="10.00">SC2API/include/Cheats.h</text>
</g>
<!-- Node2 -->
<g id="node2" class="node"><title>Node2</title>
<g id="a_node2"><a xlink:href="_s_c2_a_p_i_8h.html" target="_top" xlink:title="SC2API.h">
<polygon fill="white" stroke="black" points="198,-56.5 198,-75.5 257,-75.5 257,-56.5 198,-56.5"/>
<text text-anchor="middle" x="227.5" y="-63.5" font-family="Helvetica,sans-Serif" font-size="10.00">SC2API.h</text>
</a>
</g>
</g>
<!-- Node1&#45;&gt;Node2 -->
<g id="edge1" class="edge"><title>Node1&#45;&gt;Node2</title>
<path fill="none" stroke="midnightblue" d="M252.303,-168.469C249.021,-159.489 243.924,-144.894 240.5,-132 236.433,-116.687 232.981,-99.0457 230.658,-86.0088"/>
<polygon fill="midnightblue" stroke="midnightblue" points="234.066,-85.1733 228.921,-75.9117 227.167,-86.3604 234.066,-85.1733"/>
</g>
<!-- Node7 -->
<g id="node7" class="node"><title>Node7</title>
<g id="a_node7"><a xlink:href="_s_c2_a_p_i_unit_8h.html" target="_top" xlink:title="SC2APIUnit.h">
<polygon fill="white" stroke="black" points="116,-112.5 116,-131.5 193,-131.5 193,-112.5 116,-112.5"/>
<text text-anchor="middle" x="154.5" y="-119.5" font-family="Helvetica,sans-Serif" font-size="10.00">SC2APIUnit.h</text>
</a>
</g>
</g>
<!-- Node1&#45;&gt;Node7 -->
<g id="edge6" class="edge"><title>Node1&#45;&gt;Node7</title>
<path fill="none" stroke="midnightblue" d="M239.273,-168.324C223.149,-159.703 198.2,-146.364 179.536,-136.386"/>
<polygon fill="midnightblue" stroke="midnightblue" points="181.156,-133.283 170.687,-131.655 177.856,-139.456 181.156,-133.283"/>
</g>
<!-- Node9 -->
<g id="node9" class="node"><title>Node9</title>
<g id="a_node9"><a xlink:href="_s_c2_a_p_i_point_8h.html" target="_top" xlink:title="SC2APIPoint.h">
<polygon fill="white" stroke="black" points="249.5,-112.5 249.5,-131.5 331.5,-131.5 331.5,-112.5 249.5,-112.5"/>
<text text-anchor="middle" x="290.5" y="-119.5" font-family="Helvetica,sans-Serif" font-size="10.00">SC2APIPoint.h</text>
</a>
</g>
</g>
<!-- Node1&#45;&gt;Node9 -->
<g id="edge9" class="edge"><title>Node1&#45;&gt;Node9</title>
<path fill="none" stroke="midnightblue" d="M261.28,-168.083C266.172,-160.534 273.327,-149.495 279.333,-140.23"/>
<polygon fill="midnightblue" stroke="midnightblue" points="282.326,-142.046 284.828,-131.751 276.452,-138.239 282.326,-142.046"/>
</g>
<!-- Node10 -->
<g id="node10" class="node"><title>Node10</title>
<polygon fill="white" stroke="#bfbfbf" points="304,-56.5 304,-75.5 345,-75.5 345,-56.5 304,-56.5"/>
<text text-anchor="middle" x="324.5" y="-63.5" font-family="Helvetica,sans-Serif" font-size="10.00">string</text>
</g>
<!-- Node1&#45;&gt;Node10 -->
<g id="edge12" class="edge"><title>Node1&#45;&gt;Node10</title>
<path fill="none" stroke="midnightblue" d="M289.299,-168.388C307.893,-161.735 329.39,-150.453 340.5,-132 349.279,-117.419 342.777,-98.2478 335.605,-84.5106"/>
<polygon fill="midnightblue" stroke="midnightblue" points="338.5,-82.5257 330.473,-75.6115 332.436,-86.0227 338.5,-82.5257"/>
</g>
<!-- Node3 -->
<g id="node3" class="node"><title>Node3</title>
<polygon fill="white" stroke="#bfbfbf" points="0,-0.5 0,-19.5 95,-19.5 95,-0.5 0,-0.5"/>
<text text-anchor="middle" x="47.5" y="-7.5" font-family="Helvetica,sans-Serif" font-size="10.00">zycore/Signal.hpp</text>
</g>
<!-- Node2&#45;&gt;Node3 -->
<g id="edge2" class="edge"><title>Node2&#45;&gt;Node3</title>
<path fill="none" stroke="midnightblue" d="M198.978,-56.4435C168.434,-47.2801 119.792,-32.6876 85.8973,-22.5192"/>
<polygon fill="midnightblue" stroke="midnightblue" points="86.4721,-19.0376 75.8881,-19.5164 84.4606,-25.7424 86.4721,-19.0376"/>
</g>
<!-- Node4 -->
<g id="node4" class="node"><title>Node4</title>
<polygon fill="white" stroke="#bfbfbf" points="113.5,-0.5 113.5,-19.5 217.5,-19.5 217.5,-0.5 113.5,-0.5"/>
<text text-anchor="middle" x="165.5" y="-7.5" font-family="Helvetica,sans-Serif" font-size="10.00">zycore/Optional.hpp</text>
</g>
<!-- Node2&#45;&gt;Node4 -->
<g id="edge3" class="edge"><title>Node2&#45;&gt;Node4</title>
<path fill="none" stroke="midnightblue" d="M217.539,-56.324C208.373,-48.3414 194.563,-36.3128 183.472,-26.6529"/>
<polygon fill="midnightblue" stroke="midnightblue" points="185.482,-23.7624 175.643,-19.8339 180.885,-29.041 185.482,-23.7624"/>
</g>
<!-- Node5 -->
<g id="node5" class="node"><title>Node5</title>
<polygon fill="white" stroke="#bfbfbf" points="235.5,-0.5 235.5,-19.5 343.5,-19.5 343.5,-0.5 235.5,-0.5"/>
<text text-anchor="middle" x="289.5" y="-7.5" font-family="Helvetica,sans-Serif" font-size="10.00">zycore/Singleton.hpp</text>
</g>
<!-- Node2&#45;&gt;Node5 -->
<g id="edge4" class="edge"><title>Node2&#45;&gt;Node5</title>
<path fill="none" stroke="midnightblue" d="M237.461,-56.324C246.627,-48.3414 260.437,-36.3128 271.528,-26.6529"/>
<polygon fill="midnightblue" stroke="midnightblue" points="274.115,-29.041 279.357,-19.8339 269.518,-23.7624 274.115,-29.041"/>
</g>
<!-- Node6 -->
<g id="node6" class="node"><title>Node6</title>
<polygon fill="white" stroke="#bfbfbf" points="362,-0.5 362,-19.5 485,-19.5 485,-0.5 362,-0.5"/>
<text text-anchor="middle" x="423.5" y="-7.5" font-family="Helvetica,sans-Serif" font-size="10.00">zycore/SignalObject.hpp</text>
</g>
<!-- Node2&#45;&gt;Node6 -->
<g id="edge5" class="edge"><title>Node2&#45;&gt;Node6</title>
<path fill="none" stroke="midnightblue" d="M257.268,-56.7986C290.648,-47.6021 344.993,-32.6294 382.407,-22.3216"/>
<polygon fill="midnightblue" stroke="midnightblue" points="383.768,-25.5772 392.479,-19.5467 381.908,-18.8286 383.768,-25.5772"/>
</g>
<!-- Node7&#45;&gt;Node2 -->
<g id="edge7" class="edge"><title>Node7&#45;&gt;Node2</title>
<path fill="none" stroke="midnightblue" d="M166.229,-112.324C177.337,-104.107 194.242,-91.6017 207.483,-81.8069"/>
<polygon fill="midnightblue" stroke="midnightblue" points="209.6,-84.5948 215.558,-75.8339 205.437,-78.9671 209.6,-84.5948"/>
</g>
<!-- Node8 -->
<g id="node8" class="node"><title>Node8</title>
<g id="a_node8"><a xlink:href="_handle_id_8h.html" target="_top" xlink:title="HandleId.h">
<polygon fill="white" stroke="black" points="117.5,-56.5 117.5,-75.5 179.5,-75.5 179.5,-56.5 117.5,-56.5"/>
<text text-anchor="middle" x="148.5" y="-63.5" font-family="Helvetica,sans-Serif" font-size="10.00">HandleId.h</text>
</a>
</g>
</g>
<!-- Node7&#45;&gt;Node8 -->
<g id="edge8" class="edge"><title>Node7&#45;&gt;Node8</title>
<path fill="none" stroke="midnightblue" d="M153.509,-112.083C152.714,-104.927 151.571,-94.6353 150.577,-85.6911"/>
<polygon fill="midnightblue" stroke="midnightblue" points="154.055,-85.3034 149.472,-75.7511 147.098,-86.0765 154.055,-85.3034"/>
</g>
<!-- Node9&#45;&gt;Node2 -->
<g id="edge10" class="edge"><title>Node9&#45;&gt;Node2</title>
<path fill="none" stroke="midnightblue" d="M280.378,-112.324C270.974,-104.263 256.756,-92.0765 245.431,-82.3695"/>
<polygon fill="midnightblue" stroke="midnightblue" points="247.677,-79.6844 237.806,-75.8339 243.121,-84.9993 247.677,-79.6844"/>
</g>
<!-- Node9&#45;&gt;Node10 -->
<g id="edge11" class="edge"><title>Node9&#45;&gt;Node10</title>
<path fill="none" stroke="midnightblue" d="M296.114,-112.083C300.867,-104.534 307.818,-93.4948 313.652,-84.2298"/>
<polygon fill="midnightblue" stroke="midnightblue" points="316.624,-86.0783 318.99,-75.7511 310.7,-82.3486 316.624,-86.0783"/>
</g>
</g>
</svg>
