<?xml version="1.0" encoding="UTF-8" standalone="no"?>
<!DOCTYPE svg PUBLIC "-//W3C//DTD SVG 1.1//EN"
 "http://www.w3.org/Graphics/SVG/1.1/DTD/svg11.dtd">
<!-- Generated by graphviz version 2.38.0 (20140413.2041)
 -->
<!-- Title: SC2API/include/Creator.h Pages: 1 -->
<svg width="348pt" height="84pt"
 viewBox="0.00 0.00 348.00 84.00" xmlns="http://www.w3.org/2000/svg" xmlns:xlink="http://www.w3.org/1999/xlink">
<g id="graph0" class="graph" transform="scale(1 1) rotate(0) translate(4 80)">
<title>SC2API/include/Creator.h</title>
<polygon fill="white" stroke="none" points="-4,4 -4,-80 344,-80 344,4 -4,4"/>
<!-- Node1 -->
<g id="node1" class="node"><title>Node1</title>
<polygon fill="#bfbfbf" stroke="black" points="103,-56.5 103,-75.5 231,-75.5 231,-56.5 103,-56.5"/>
<text text-anchor="middle" x="167" y="-63.5" font-family="Helvetica,sans-Serif" font-size="10.00">SC2API/include/Creator.h</text>
</g>
<!-- Node2 -->
<g id="node2" class="node"><title>Node2</title>
<polygon fill="white" stroke="#bfbfbf" points="0,-0.5 0,-19.5 58,-19.5 58,-0.5 0,-0.5"/>
<text text-anchor="middle" x="29" y="-7.5" font-family="Helvetica,sans-Serif" font-size="10.00">functional</text>
</g>
<!-- Node1&#45;&gt;Node2 -->
<g id="edge1" class="edge"><title>Node1&#45;&gt;Node2</title>
<path fill="none" stroke="midnightblue" d="M145.133,-56.4435C122.221,-47.4776 86.0247,-33.314 60.1335,-23.1827"/>
<polygon fill="midnightblue" stroke="midnightblue" points="61.3521,-19.9011 50.7642,-19.5164 58.8012,-26.4198 61.3521,-19.9011"/>
</g>
<!-- Node3 -->
<g id="node3" class="node"><title>Node3</title>
<polygon fill="white" stroke="#bfbfbf" points="76,-0.5 76,-19.5 128,-19.5 128,-0.5 76,-0.5"/>
<text text-anchor="middle" x="102" y="-7.5" font-family="Helvetica,sans-Serif" font-size="10.00">memory</text>
</g>
<!-- Node1&#45;&gt;Node3 -->
<g id="edge2" class="edge"><title>Node1&#45;&gt;Node3</title>
<path fill="none" stroke="midnightblue" d="M156.557,-56.324C146.854,-48.2631 132.185,-36.0765 120.5,-26.3695"/>
<polygon fill="midnightblue" stroke="midnightblue" points="122.562,-23.532 112.633,-19.8339 118.089,-28.9163 122.562,-23.532"/>
</g>
<!-- Node4 -->
<g id="node4" class="node"><title>Node4</title>
<polygon fill="white" stroke="#bfbfbf" points="146,-0.5 146,-19.5 188,-19.5 188,-0.5 146,-0.5"/>
<text text-anchor="middle" x="167" y="-7.5" font-family="Helvetica,sans-Serif" font-size="10.00">vector</text>
</g>
<!-- Node1&#45;&gt;Node4 -->
<g id="edge3" class="edge"><title>Node1&#45;&gt;Node4</title>
<path fill="none" stroke="midnightblue" d="M167,-56.083C167,-49.0059 167,-38.8611 167,-29.9865"/>
<polygon fill="midnightblue" stroke="midnightblue" points="170.5,-29.751 167,-19.7511 163.5,-29.7511 170.5,-29.751"/>
</g>
<!-- Node5 -->
<g id="node5" class="node"><title>Node5</title>
<polygon fill="white" stroke="#bfbfbf" points="206,-0.5 206,-19.5 260,-19.5 260,-0.5 206,-0.5"/>
<text text-anchor="middle" x="233" y="-7.5" font-family="Helvetica,sans-Serif" font-size="10.00">iostream</text>
</g>
<!-- Node1&#45;&gt;Node5 -->
<g id="edge4" class="edge"><title>Node1&#45;&gt;Node5</title>
<path fill="none" stroke="midnightblue" d="M177.604,-56.324C187.456,-48.2631 202.351,-36.0765 214.215,-26.3695"/>
<polygon fill="midnightblue" stroke="midnightblue" points="216.68,-28.8752 222.203,-19.8339 212.247,-23.4575 216.68,-28.8752"/>
</g>
<!-- Node6 -->
<g id="node6" class="node"><title>Node6</title>
<polygon fill="white" stroke="#bfbfbf" points="278,-0.5 278,-19.5 340,-19.5 340,-0.5 278,-0.5"/>
<text text-anchor="middle" x="309" y="-7.5" font-family="Helvetica,sans-Serif" font-size="10.00">type_traits</text>
</g>
<!-- Node1&#45;&gt;Node6 -->
<g id="edge5" class="edge"><title>Node1&#45;&gt;Node6</title>
<path fill="none" stroke="midnightblue" d="M189.5,-56.4435C213.077,-47.4776 250.322,-33.314 276.964,-23.1827"/>
<polygon fill="midnightblue" stroke="midnightblue" points="278.502,-26.3424 286.605,-19.5164 276.014,-19.7995 278.502,-26.3424"/>
</g>
</g>
</svg>
