<?xml version="1.0" encoding="UTF-8" standalone="no"?>
<!DOCTYPE svg PUBLIC "-//W3C//DTD SVG 1.1//EN"
 "http://www.w3.org/Graphics/SVG/1.1/DTD/svg11.dtd">
<!-- Generated by graphviz version 2.38.0 (20140413.2041)
 -->
<!-- Title: SC2API/include/HandleId.h Pages: 1 -->
<svg width="156pt" height="151pt"
 viewBox="0.00 0.00 156.00 151.00" xmlns="http://www.w3.org/2000/svg" xmlns:xlink="http://www.w3.org/1999/xlink">
<g id="graph0" class="graph" transform="scale(1 1) rotate(0) translate(4 147)">
<title>SC2API/include/HandleId.h</title>
<polygon fill="white" stroke="none" points="-4,4 -4,-147 152,-147 152,4 -4,4"/>
<!-- Node1 -->
<g id="node1" class="node"><title>Node1</title>
<polygon fill="#bfbfbf" stroke="black" points="7,-123.5 7,-142.5 141,-142.5 141,-123.5 7,-123.5"/>
<text text-anchor="middle" x="74" y="-130.5" font-family="Helvetica,sans-Serif" font-size="10.00">SC2API/include/HandleId.h</text>
</g>
<!-- Node2 -->
<g id="node2" class="node"><title>Node2</title>
<g id="a_node2"><a xlink:href="_s_c2_a_p_i_unit_8h.html" target="_top" xlink:title="SC2API/include/SC2APIUnit.h">
<polygon fill="white" stroke="black" points="0,-67.5 0,-86.5 148,-86.5 148,-67.5 0,-67.5"/>
<text text-anchor="middle" x="74" y="-74.5" font-family="Helvetica,sans-Serif" font-size="10.00">SC2API/include/SC2APIUnit.h</text>
</a>
</g>
</g>
<!-- Node1&#45;&gt;Node2 -->
<g id="edge1" class="edge"><title>Node1&#45;&gt;Node2</title>
<path fill="none" stroke="midnightblue" d="M74,-112.805C74,-103.91 74,-93.7798 74,-86.7511"/>
<polygon fill="midnightblue" stroke="midnightblue" points="70.5001,-113.083 74,-123.083 77.5001,-113.083 70.5001,-113.083"/>
</g>
<!-- Node3 -->
<g id="node3" class="node"><title>Node3</title>
<g id="a_node3"><a xlink:href="_s_c2_a_p_i_unit_group_8h.html" target="_top" xlink:title="SC2API/include/SC2APIUnit\lGroup.h">
<polygon fill="white" stroke="black" points="4,-0.5 4,-30.5 144,-30.5 144,-0.5 4,-0.5"/>
<text text-anchor="start" x="12" y="-18.5" font-family="Helvetica,sans-Serif" font-size="10.00">SC2API/include/SC2APIUnit</text>
<text text-anchor="middle" x="74" y="-7.5" font-family="Helvetica,sans-Serif" font-size="10.00">Group.h</text>
</a>
</g>
</g>
<!-- Node2&#45;&gt;Node3 -->
<g id="edge2" class="edge"><title>Node2&#45;&gt;Node3</title>
<path fill="none" stroke="midnightblue" d="M74,-57.2349C74,-48.5864 74,-38.4969 74,-30.523"/>
<polygon fill="midnightblue" stroke="midnightblue" points="70.5001,-57.4751 74,-67.4751 77.5001,-57.4751 70.5001,-57.4751"/>
</g>
</g>
</svg>
