<?xml version="1.0" encoding="UTF-8" standalone="no"?>
<!DOCTYPE svg PUBLIC "-//W3C//DTD SVG 1.1//EN"
 "http://www.w3.org/Graphics/SVG/1.1/DTD/svg11.dtd">
<!-- Generated by graphviz version 2.38.0 (20140413.2041)
 -->
<!-- Title: SC2API/include/SC2APIGame.h Pages: 1 -->
<svg width="493pt" height="140pt"
 viewBox="0.00 0.00 493.00 140.00" xmlns="http://www.w3.org/2000/svg" xmlns:xlink="http://www.w3.org/1999/xlink">
<g id="graph0" class="graph" transform="scale(1 1) rotate(0) translate(4 136)">
<title>SC2API/include/SC2APIGame.h</title>
<polygon fill="white" stroke="none" points="-4,4 -4,-136 489,-136 489,4 -4,4"/>
<!-- Node1 -->
<g id="node1" class="node"><title>Node1</title>
<polygon fill="#bfbfbf" stroke="black" points="43,-112.5 43,-131.5 200,-131.5 200,-112.5 43,-112.5"/>
<text text-anchor="middle" x="121.5" y="-119.5" font-family="Helvetica,sans-Serif" font-size="10.00">SC2API/include/SC2APIGame.h</text>
</g>
<!-- Node2 -->
<g id="node2" class="node"><title>Node2</title>
<g id="a_node2"><a xlink:href="_s_c2_a_p_i_8h.html" target="_top" xlink:title="SC2API.h">
<polygon fill="white" stroke="black" points="136,-56.5 136,-75.5 195,-75.5 195,-56.5 136,-56.5"/>
<text text-anchor="middle" x="165.5" y="-63.5" font-family="Helvetica,sans-Serif" font-size="10.00">SC2API.h</text>
</a>
</g>
</g>
<!-- Node1&#45;&gt;Node2 -->
<g id="edge1" class="edge"><title>Node1&#45;&gt;Node2</title>
<path fill="none" stroke="midnightblue" d="M128.766,-112.083C135.045,-104.377 144.288,-93.0333 151.931,-83.6531"/>
<polygon fill="midnightblue" stroke="midnightblue" points="154.766,-85.7143 158.369,-75.7511 149.339,-81.2926 154.766,-85.7143"/>
</g>
<!-- Node3 -->
<g id="node3" class="node"><title>Node3</title>
<polygon fill="white" stroke="#bfbfbf" points="0,-0.5 0,-19.5 95,-19.5 95,-0.5 0,-0.5"/>
<text text-anchor="middle" x="47.5" y="-7.5" font-family="Helvetica,sans-Serif" font-size="10.00">zycore/Signal.hpp</text>
</g>
<!-- Node1&#45;&gt;Node3 -->
<g id="edge6" class="edge"><title>Node1&#45;&gt;Node3</title>
<path fill="none" stroke="midnightblue" d="M115.693,-112.368C103.481,-94.2153 74.9483,-51.8015 58.9298,-27.9902"/>
<polygon fill="midnightblue" stroke="midnightblue" points="61.7655,-25.935 53.2797,-19.5914 55.9575,-29.8423 61.7655,-25.935"/>
</g>
<!-- Node2&#45;&gt;Node3 -->
<g id="edge2" class="edge"><title>Node2&#45;&gt;Node3</title>
<path fill="none" stroke="midnightblue" d="M146.803,-56.4435C127.556,-47.6356 97.3475,-33.8116 75.2999,-23.722"/>
<polygon fill="midnightblue" stroke="midnightblue" points="76.6595,-20.4951 66.11,-19.5164 73.7466,-26.8603 76.6595,-20.4951"/>
</g>
<!-- Node4 -->
<g id="node4" class="node"><title>Node4</title>
<polygon fill="white" stroke="#bfbfbf" points="113.5,-0.5 113.5,-19.5 217.5,-19.5 217.5,-0.5 113.5,-0.5"/>
<text text-anchor="middle" x="165.5" y="-7.5" font-family="Helvetica,sans-Serif" font-size="10.00">zycore/Optional.hpp</text>
</g>
<!-- Node2&#45;&gt;Node4 -->
<g id="edge3" class="edge"><title>Node2&#45;&gt;Node4</title>
<path fill="none" stroke="midnightblue" d="M165.5,-56.083C165.5,-49.0059 165.5,-38.8611 165.5,-29.9865"/>
<polygon fill="midnightblue" stroke="midnightblue" points="169,-29.751 165.5,-19.7511 162,-29.7511 169,-29.751"/>
</g>
<!-- Node5 -->
<g id="node5" class="node"><title>Node5</title>
<polygon fill="white" stroke="#bfbfbf" points="235.5,-0.5 235.5,-19.5 343.5,-19.5 343.5,-0.5 235.5,-0.5"/>
<text text-anchor="middle" x="289.5" y="-7.5" font-family="Helvetica,sans-Serif" font-size="10.00">zycore/Singleton.hpp</text>
</g>
<!-- Node2&#45;&gt;Node5 -->
<g id="edge4" class="edge"><title>Node2&#45;&gt;Node5</title>
<path fill="none" stroke="midnightblue" d="M185.148,-56.4435C205.465,-47.5961 237.403,-33.6875 260.598,-23.5865"/>
<polygon fill="midnightblue" stroke="midnightblue" points="262.173,-26.7181 269.944,-19.5164 259.378,-20.3002 262.173,-26.7181"/>
</g>
<!-- Node6 -->
<g id="node6" class="node"><title>Node6</title>
<polygon fill="white" stroke="#bfbfbf" points="362,-0.5 362,-19.5 485,-19.5 485,-0.5 362,-0.5"/>
<text text-anchor="middle" x="423.5" y="-7.5" font-family="Helvetica,sans-Serif" font-size="10.00">zycore/SignalObject.hpp</text>
</g>
<!-- Node2&#45;&gt;Node6 -->
<g id="edge5" class="edge"><title>Node2&#45;&gt;Node6</title>
<path fill="none" stroke="midnightblue" d="M195.096,-58.8055C238.493,-49.7225 319.972,-32.6687 372.964,-21.5773"/>
<polygon fill="midnightblue" stroke="midnightblue" points="373.766,-24.9853 382.837,-19.5108 372.332,-18.1338 373.766,-24.9853"/>
</g>
</g>
</svg>
