<?xml version="1.0" encoding="UTF-8" standalone="no"?>
<!DOCTYPE svg PUBLIC "-//W3C//DTD SVG 1.1//EN"
 "http://www.w3.org/Graphics/SVG/1.1/DTD/svg11.dtd">
<!-- Generated by graphviz version 2.38.0 (20140413.2041)
 -->
<!-- Title: SC2API/include/SC2APIOrder.h Pages: 1 -->
<svg width="493pt" height="196pt"
 viewBox="0.00 0.00 493.00 196.00" xmlns="http://www.w3.org/2000/svg" xmlns:xlink="http://www.w3.org/1999/xlink">
<g id="graph0" class="graph" transform="scale(1 1) rotate(0) translate(4 192)">
<title>SC2API/include/SC2APIOrder.h</title>
<polygon fill="white" stroke="none" points="-4,4 -4,-192 489,-192 489,4 -4,4"/>
<!-- Node1 -->
<g id="node1" class="node"><title>Node1</title>
<polygon fill="#bfbfbf" stroke="black" points="184,-168.5 184,-187.5 339,-187.5 339,-168.5 184,-168.5"/>
<text text-anchor="middle" x="261.5" y="-175.5" font-family="Helvetica,sans-Serif" font-size="10.00">SC2API/include/SC2APIOrder.h</text>
</g>
<!-- Node2 -->
<g id="node2" class="node"><title>Node2</title>
<g id="a_node2"><a xlink:href="_s_c2_a_p_i_8h.html" target="_top" xlink:title="SC2API.h">
<polygon fill="white" stroke="black" points="198,-56.5 198,-75.5 257,-75.5 257,-56.5 198,-56.5"/>
<text text-anchor="middle" x="227.5" y="-63.5" font-family="Helvetica,sans-Serif" font-size="10.00">SC2API.h</text>
</a>
</g>
</g>
<!-- Node1&#45;&gt;Node2 -->
<g id="edge1" class="edge"><title>Node1&#45;&gt;Node2</title>
<path fill="none" stroke="midnightblue" d="M258.528,-168.404C255.431,-159.371 250.482,-144.733 246.5,-132 241.62,-116.396 236.436,-98.564 232.717,-85.5295"/>
<polygon fill="midnightblue" stroke="midnightblue" points="236.072,-84.5294 229.977,-75.8629 229.337,-86.4384 236.072,-84.5294"/>
</g>
<!-- Node7 -->
<g id="node7" class="node"><title>Node7</title>
<g id="a_node7"><a xlink:href="_s_c2_a_p_i_point_8h.html" target="_top" xlink:title="SC2APIPoint.h">
<polygon fill="white" stroke="black" points="255.5,-112.5 255.5,-131.5 337.5,-131.5 337.5,-112.5 255.5,-112.5"/>
<text text-anchor="middle" x="296.5" y="-119.5" font-family="Helvetica,sans-Serif" font-size="10.00">SC2APIPoint.h</text>
</a>
</g>
</g>
<!-- Node1&#45;&gt;Node7 -->
<g id="edge6" class="edge"><title>Node1&#45;&gt;Node7</title>
<path fill="none" stroke="midnightblue" d="M267.28,-168.083C272.172,-160.534 279.327,-149.495 285.333,-140.23"/>
<polygon fill="midnightblue" stroke="midnightblue" points="288.326,-142.046 290.828,-131.751 282.452,-138.239 288.326,-142.046"/>
</g>
<!-- Node3 -->
<g id="node3" class="node"><title>Node3</title>
<polygon fill="white" stroke="#bfbfbf" points="0,-0.5 0,-19.5 95,-19.5 95,-0.5 0,-0.5"/>
<text text-anchor="middle" x="47.5" y="-7.5" font-family="Helvetica,sans-Serif" font-size="10.00">zycore/Signal.hpp</text>
</g>
<!-- Node2&#45;&gt;Node3 -->
<g id="edge2" class="edge"><title>Node2&#45;&gt;Node3</title>
<path fill="none" stroke="midnightblue" d="M198.978,-56.4435C168.434,-47.2801 119.792,-32.6876 85.8973,-22.5192"/>
<polygon fill="midnightblue" stroke="midnightblue" points="86.4721,-19.0376 75.8881,-19.5164 84.4606,-25.7424 86.4721,-19.0376"/>
</g>
<!-- Node4 -->
<g id="node4" class="node"><title>Node4</title>
<polygon fill="white" stroke="#bfbfbf" points="113.5,-0.5 113.5,-19.5 217.5,-19.5 217.5,-0.5 113.5,-0.5"/>
<text text-anchor="middle" x="165.5" y="-7.5" font-family="Helvetica,sans-Serif" font-size="10.00">zycore/Optional.hpp</text>
</g>
<!-- Node2&#45;&gt;Node4 -->
<g id="edge3" class="edge"><title>Node2&#45;&gt;Node4</title>
<path fill="none" stroke="midnightblue" d="M217.539,-56.324C208.373,-48.3414 194.563,-36.3128 183.472,-26.6529"/>
<polygon fill="midnightblue" stroke="midnightblue" points="185.482,-23.7624 175.643,-19.8339 180.885,-29.041 185.482,-23.7624"/>
</g>
<!-- Node5 -->
<g id="node5" class="node"><title>Node5</title>
<polygon fill="white" stroke="#bfbfbf" points="235.5,-0.5 235.5,-19.5 343.5,-19.5 343.5,-0.5 235.5,-0.5"/>
<text text-anchor="middle" x="289.5" y="-7.5" font-family="Helvetica,sans-Serif" font-size="10.00">zycore/Singleton.hpp</text>
</g>
<!-- Node2&#45;&gt;Node5 -->
<g id="edge4" class="edge"><title>Node2&#45;&gt;Node5</title>
<path fill="none" stroke="midnightblue" d="M237.461,-56.324C246.627,-48.3414 260.437,-36.3128 271.528,-26.6529"/>
<polygon fill="midnightblue" stroke="midnightblue" points="274.115,-29.041 279.357,-19.8339 269.518,-23.7624 274.115,-29.041"/>
</g>
<!-- Node6 -->
<g id="node6" class="node"><title>Node6</title>
<polygon fill="white" stroke="#bfbfbf" points="362,-0.5 362,-19.5 485,-19.5 485,-0.5 362,-0.5"/>
<text text-anchor="middle" x="423.5" y="-7.5" font-family="Helvetica,sans-Serif" font-size="10.00">zycore/SignalObject.hpp</text>
</g>
<!-- Node2&#45;&gt;Node6 -->
<g id="edge5" class="edge"><title>Node2&#45;&gt;Node6</title>
<path fill="none" stroke="midnightblue" d="M257.268,-56.7986C290.648,-47.6021 344.993,-32.6294 382.407,-22.3216"/>
<polygon fill="midnightblue" stroke="midnightblue" points="383.768,-25.5772 392.479,-19.5467 381.908,-18.8286 383.768,-25.5772"/>
</g>
<!-- Node7&#45;&gt;Node2 -->
<g id="edge7" class="edge"><title>Node7&#45;&gt;Node2</title>
<path fill="none" stroke="midnightblue" d="M285.414,-112.324C275.014,-104.185 259.239,-91.8395 246.778,-82.0874"/>
<polygon fill="midnightblue" stroke="midnightblue" points="248.82,-79.2407 238.788,-75.8339 244.506,-84.7533 248.82,-79.2407"/>
</g>
<!-- Node8 -->
<g id="node8" class="node"><title>Node8</title>
<polygon fill="white" stroke="#bfbfbf" points="276,-56.5 276,-75.5 317,-75.5 317,-56.5 276,-56.5"/>
<text text-anchor="middle" x="296.5" y="-63.5" font-family="Helvetica,sans-Serif" font-size="10.00">string</text>
</g>
<!-- Node7&#45;&gt;Node8 -->
<g id="edge8" class="edge"><title>Node7&#45;&gt;Node8</title>
<path fill="none" stroke="midnightblue" d="M296.5,-112.083C296.5,-105.006 296.5,-94.8611 296.5,-85.9865"/>
<polygon fill="midnightblue" stroke="midnightblue" points="300,-85.751 296.5,-75.7511 293,-85.7511 300,-85.751"/>
</g>
</g>
</svg>
