<?xml version="1.0" encoding="UTF-8" standalone="no"?>
<!DOCTYPE svg PUBLIC "-//W3C//DTD SVG 1.1//EN"
 "http://www.w3.org/Graphics/SVG/1.1/DTD/svg11.dtd">
<!-- Generated by graphviz version 2.38.0 (20140413.2041)
 -->
<!-- Title: SC2API/include/SC2API.h Pages: 1 -->
<svg width="1385pt" height="162pt"
 viewBox="0.00 0.00 1384.50 162.00" xmlns="http://www.w3.org/2000/svg" xmlns:xlink="http://www.w3.org/1999/xlink">
<g id="graph0" class="graph" transform="scale(1 1) rotate(0) translate(4 158)">
<title>SC2API/include/SC2API.h</title>
<polygon fill="white" stroke="none" points="-4,4 -4,-158 1380.5,-158 1380.5,4 -4,4"/>
<!-- Node1 -->
<g id="node1" class="node"><title>Node1</title>
<polygon fill="#bfbfbf" stroke="black" points="722,-134.5 722,-153.5 853,-153.5 853,-134.5 722,-134.5"/>
<text text-anchor="middle" x="787.5" y="-141.5" font-family="Helvetica,sans-Serif" font-size="10.00">SC2API/include/SC2API.h</text>
</g>
<!-- Node2 -->
<g id="node2" class="node"><title>Node2</title>
<g id="a_node2"><a xlink:href="_s_c2_a_p_i_command_8h.html" target="_top" xlink:title="SC2API/include/SC2APICommand.h">
<polygon fill="white" stroke="black" points="0,-73 0,-92 175,-92 175,-73 0,-73"/>
<text text-anchor="middle" x="87.5" y="-80" font-family="Helvetica,sans-Serif" font-size="10.00">SC2API/include/SC2APICommand.h</text>
</a>
</g>
</g>
<!-- Node1&#45;&gt;Node2 -->
<g id="edge1" class="edge"><title>Node1&#45;&gt;Node2</title>
<path fill="none" stroke="midnightblue" d="M711.71,-139.146C597.268,-132.919 373.624,-119.163 184.5,-98 169.947,-96.3715 154.225,-94.2008 139.762,-92.0359"/>
<polygon fill="midnightblue" stroke="midnightblue" points="711.595,-142.645 721.769,-139.689 711.973,-135.655 711.595,-142.645"/>
</g>
<!-- Node3 -->
<g id="node3" class="node"><title>Node3</title>
<g id="a_node3"><a xlink:href="_s_c2_a_p_i_game_8h.html" target="_top" xlink:title="SC2API/include/SC2APIGame.h">
<polygon fill="white" stroke="black" points="193,-73 193,-92 350,-92 350,-73 193,-73"/>
<text text-anchor="middle" x="271.5" y="-80" font-family="Helvetica,sans-Serif" font-size="10.00">SC2API/include/SC2APIGame.h</text>
</a>
</g>
</g>
<!-- Node1&#45;&gt;Node3 -->
<g id="edge2" class="edge"><title>Node1&#45;&gt;Node3</title>
<path fill="none" stroke="midnightblue" d="M711.576,-136.371C625.889,-128.575 482.416,-114.574 359.5,-98 346.764,-96.2827 333.036,-94.1547 320.298,-92.0629"/>
<polygon fill="midnightblue" stroke="midnightblue" points="711.459,-139.874 721.733,-137.29 712.09,-132.903 711.459,-139.874"/>
</g>
<!-- Node4 -->
<g id="node4" class="node"><title>Node4</title>
<g id="a_node4"><a xlink:href="_s_c2_a_p_i_game_data_8h.html" target="_top" xlink:title="SC2API/include/SC2APIGame\lData.h">
<polygon fill="white" stroke="black" points="368,-67.5 368,-97.5 517,-97.5 517,-67.5 368,-67.5"/>
<text text-anchor="start" x="376" y="-85.5" font-family="Helvetica,sans-Serif" font-size="10.00">SC2API/include/SC2APIGame</text>
<text text-anchor="middle" x="442.5" y="-74.5" font-family="Helvetica,sans-Serif" font-size="10.00">Data.h</text>
</a>
</g>
</g>
<!-- Node1&#45;&gt;Node4 -->
<g id="edge3" class="edge"><title>Node1&#45;&gt;Node4</title>
<path fill="none" stroke="midnightblue" d="M728.062,-132.756C675.161,-123.637 595.673,-109.934 526.5,-98 523.437,-97.4717 520.312,-96.9324 517.155,-96.3876"/>
<polygon fill="midnightblue" stroke="midnightblue" points="727.5,-136.21 737.95,-134.46 728.689,-129.312 727.5,-136.21"/>
</g>
<!-- Node5 -->
<g id="node5" class="node"><title>Node5</title>
<g id="a_node5"><a xlink:href="_s_c2_a_p_i_order_8h.html" target="_top" xlink:title="SC2API/include/SC2APIOrder.h">
<polygon fill="white" stroke="black" points="535,-73 535,-92 690,-92 690,-73 535,-73"/>
<text text-anchor="middle" x="612.5" y="-80" font-family="Helvetica,sans-Serif" font-size="10.00">SC2API/include/SC2APIOrder.h</text>
</a>
</g>
</g>
<!-- Node1&#45;&gt;Node5 -->
<g id="edge4" class="edge"><title>Node1&#45;&gt;Node5</title>
<path fill="none" stroke="midnightblue" d="M752.888,-131.232C718.871,-119.666 667.784,-102.297 637.527,-92.0091"/>
<polygon fill="midnightblue" stroke="midnightblue" points="751.832,-134.57 762.427,-134.475 754.086,-127.942 751.832,-134.57"/>
</g>
<!-- Node6 -->
<g id="node6" class="node"><title>Node6</title>
<g id="a_node6"><a xlink:href="_s_c2_a_p_i_player_8h.html" target="_top" xlink:title="SC2API/include/SC2APIPlayer.h">
<polygon fill="white" stroke="black" points="708.5,-73 708.5,-92 866.5,-92 866.5,-73 708.5,-73"/>
<text text-anchor="middle" x="787.5" y="-80" font-family="Helvetica,sans-Serif" font-size="10.00">SC2API/include/SC2APIPlayer.h</text>
</a>
</g>
</g>
<!-- Node1&#45;&gt;Node6 -->
<g id="edge5" class="edge"><title>Node1&#45;&gt;Node6</title>
<path fill="none" stroke="midnightblue" d="M787.5,-124.317C787.5,-113.496 787.5,-100.398 787.5,-92.0091"/>
<polygon fill="midnightblue" stroke="midnightblue" points="784,-124.475 787.5,-134.475 791,-124.475 784,-124.475"/>
</g>
<!-- Node7 -->
<g id="node7" class="node"><title>Node7</title>
<g id="a_node7"><a xlink:href="_s_c2_a_p_i_point_8h.html" target="_top" xlink:title="SC2API/include/SC2APIPoint.h">
<polygon fill="white" stroke="black" points="885,-73 885,-92 1038,-92 1038,-73 885,-73"/>
<text text-anchor="middle" x="961.5" y="-80" font-family="Helvetica,sans-Serif" font-size="10.00">SC2API/include/SC2APIPoint.h</text>
</a>
</g>
</g>
<!-- Node1&#45;&gt;Node7 -->
<g id="edge6" class="edge"><title>Node1&#45;&gt;Node7</title>
<path fill="none" stroke="midnightblue" d="M821.914,-131.232C855.737,-119.666 906.532,-102.297 936.616,-92.0091"/>
<polygon fill="midnightblue" stroke="midnightblue" points="820.76,-127.928 812.43,-134.475 823.025,-134.551 820.76,-127.928"/>
</g>
<!-- Node8 -->
<g id="node8" class="node"><title>Node8</title>
<g id="a_node8"><a xlink:href="_s_c2_a_p_i_unit_8h.html" target="_top" xlink:title="SC2API/include/SC2APIUnit.h">
<polygon fill="white" stroke="black" points="1056.5,-73 1056.5,-92 1204.5,-92 1204.5,-73 1056.5,-73"/>
<text text-anchor="middle" x="1130.5" y="-80" font-family="Helvetica,sans-Serif" font-size="10.00">SC2API/include/SC2APIUnit.h</text>
</a>
</g>
</g>
<!-- Node1&#45;&gt;Node8 -->
<g id="edge7" class="edge"><title>Node1&#45;&gt;Node8</title>
<path fill="none" stroke="midnightblue" d="M847.043,-132.722C899.744,-123.618 978.743,-109.956 1047.5,-98 1058.6,-96.0704 1070.53,-93.9897 1081.79,-92.0235"/>
<polygon fill="midnightblue" stroke="midnightblue" points="846.122,-129.329 836.864,-134.48 847.314,-136.227 846.122,-129.329"/>
</g>
<!-- Node9 -->
<g id="node9" class="node"><title>Node9</title>
<g id="a_node9"><a xlink:href="_s_c2_a_p_i_unit_group_8h.html" target="_top" xlink:title="SC2API/include/SC2APIUnit\lGroup.h">
<polygon fill="white" stroke="black" points="1111.5,-0.5 1111.5,-30.5 1251.5,-30.5 1251.5,-0.5 1111.5,-0.5"/>
<text text-anchor="start" x="1119.5" y="-18.5" font-family="Helvetica,sans-Serif" font-size="10.00">SC2API/include/SC2APIUnit</text>
<text text-anchor="middle" x="1181.5" y="-7.5" font-family="Helvetica,sans-Serif" font-size="10.00">Group.h</text>
</a>
</g>
</g>
<!-- Node1&#45;&gt;Node9 -->
<g id="edge9" class="edge"><title>Node1&#45;&gt;Node9</title>
<path fill="none" stroke="midnightblue" d="M863.386,-140.392C979.564,-135.608 1190.56,-123.489 1213.5,-98 1230.99,-78.5655 1210.53,-48.4557 1195.22,-30.7886"/>
<polygon fill="midnightblue" stroke="midnightblue" points="862.984,-136.905 853.133,-140.805 863.266,-143.899 862.984,-136.905"/>
</g>
<!-- Node10 -->
<g id="node10" class="node"><title>Node10</title>
<g id="a_node10"><a xlink:href="_utils_8h.html" target="_top" xlink:title="SC2API/include/Utils.h">
<polygon fill="white" stroke="black" points="1260.5,-73 1260.5,-92 1376.5,-92 1376.5,-73 1260.5,-73"/>
<text text-anchor="middle" x="1318.5" y="-80" font-family="Helvetica,sans-Serif" font-size="10.00">SC2API/include/Utils.h</text>
</a>
</g>
</g>
<!-- Node1&#45;&gt;Node10 -->
<g id="edge10" class="edge"><title>Node1&#45;&gt;Node10</title>
<path fill="none" stroke="midnightblue" d="M863.374,-137.92C954.628,-131.268 1112.3,-118.04 1246.5,-98 1257.35,-96.3805 1269.03,-94.2127 1279.77,-92.0478"/>
<polygon fill="midnightblue" stroke="midnightblue" points="862.846,-134.449 853.124,-138.66 863.35,-141.431 862.846,-134.449"/>
</g>
<!-- Node8&#45;&gt;Node9 -->
<g id="edge8" class="edge"><title>Node8&#45;&gt;Node9</title>
<path fill="none" stroke="midnightblue" d="M1143.7,-64.6729C1152,-54.0939 1162.59,-40.6019 1170.45,-30.589"/>
<polygon fill="midnightblue" stroke="midnightblue" points="1140.8,-62.7059 1137.38,-72.7338 1146.3,-67.0269 1140.8,-62.7059"/>
</g>
</g>
</svg>
