<?xml version="1.0" encoding="UTF-8" standalone="no"?>
<!DOCTYPE svg PUBLIC "-//W3C//DTD SVG 1.1//EN"
 "http://www.w3.org/Graphics/SVG/1.1/DTD/svg11.dtd">
<!-- Generated by graphviz version 2.38.0 (20140413.2041)
 -->
<!-- Title: SC2API/include/SC2APIUnit.h Pages: 1 -->
<svg width="294pt" height="95pt"
 viewBox="0.00 0.00 293.50 95.00" xmlns="http://www.w3.org/2000/svg" xmlns:xlink="http://www.w3.org/1999/xlink">
<g id="graph0" class="graph" transform="scale(1 1) rotate(0) translate(4 91)">
<title>SC2API/include/SC2APIUnit.h</title>
<polygon fill="white" stroke="none" points="-4,4 -4,-91 289.5,-91 289.5,4 -4,4"/>
<!-- Node1 -->
<g id="node1" class="node"><title>Node1</title>
<polygon fill="#bfbfbf" stroke="black" points="65.5,-67.5 65.5,-86.5 213.5,-86.5 213.5,-67.5 65.5,-67.5"/>
<text text-anchor="middle" x="139.5" y="-74.5" font-family="Helvetica,sans-Serif" font-size="10.00">SC2API/include/SC2APIUnit.h</text>
</g>
<!-- Node2 -->
<g id="node2" class="node"><title>Node2</title>
<g id="a_node2"><a xlink:href="_cheats_8h.html" target="_top" xlink:title="SC2API/include/Cheats.h">
<polygon fill="white" stroke="black" points="0,-6 0,-25 127,-25 127,-6 0,-6"/>
<text text-anchor="middle" x="63.5" y="-13" font-family="Helvetica,sans-Serif" font-size="10.00">SC2API/include/Cheats.h</text>
</a>
</g>
</g>
<!-- Node1&#45;&gt;Node2 -->
<g id="edge1" class="edge"><title>Node1&#45;&gt;Node2</title>
<path fill="none" stroke="midnightblue" d="M120.716,-61.2938C106.137,-49.8803 86.4375,-34.4577 74.3687,-25.0091"/>
<polygon fill="midnightblue" stroke="midnightblue" points="118.579,-64.0665 128.611,-67.4751 122.895,-58.5547 118.579,-64.0665"/>
</g>
<!-- Node3 -->
<g id="node3" class="node"><title>Node3</title>
<g id="a_node3"><a xlink:href="_s_c2_a_p_i_unit_group_8h.html" target="_top" xlink:title="SC2API/include/SC2APIUnit\lGroup.h">
<polygon fill="white" stroke="black" points="145.5,-0.5 145.5,-30.5 285.5,-30.5 285.5,-0.5 145.5,-0.5"/>
<text text-anchor="start" x="153.5" y="-18.5" font-family="Helvetica,sans-Serif" font-size="10.00">SC2API/include/SC2APIUnit</text>
<text text-anchor="middle" x="215.5" y="-7.5" font-family="Helvetica,sans-Serif" font-size="10.00">Group.h</text>
</a>
</g>
</g>
<!-- Node1&#45;&gt;Node3 -->
<g id="edge2" class="edge"><title>Node1&#45;&gt;Node3</title>
<path fill="none" stroke="midnightblue" d="M158.41,-61.1955C170.394,-51.8129 185.801,-39.7512 197.588,-30.523"/>
<polygon fill="midnightblue" stroke="midnightblue" points="156.105,-58.5547 150.389,-67.4751 160.421,-64.0665 156.105,-58.5547"/>
</g>
</g>
</svg>
