<?xml version="1.0" encoding="UTF-8" standalone="no"?>
<!DOCTYPE svg PUBLIC "-//W3C//DTD SVG 1.1//EN"
 "http://www.w3.org/Graphics/SVG/1.1/DTD/svg11.dtd">
<!-- Generated by graphviz version 2.38.0 (20140413.2041)
 -->
<!-- Title: SC2API/include/SC2API.h Pages: 1 -->
<svg width="1347pt" height="95pt"
 viewBox="0.00 0.00 1346.50 95.00" xmlns="http://www.w3.org/2000/svg" xmlns:xlink="http://www.w3.org/1999/xlink">
<g id="graph0" class="graph" transform="scale(1 1) rotate(0) translate(4 91)">
<title>SC2API/include/SC2API.h</title>
<polygon fill="white" stroke="none" points="-4,4 -4,-91 1342.5,-91 1342.5,4 -4,4"/>
<!-- Node1 -->
<g id="node1" class="node"><title>Node1</title>
<polygon fill="#bfbfbf" stroke="black" points="634,-67.5 634,-86.5 765,-86.5 765,-67.5 634,-67.5"/>
<text text-anchor="middle" x="699.5" y="-74.5" font-family="Helvetica,sans-Serif" font-size="10.00">SC2API/include/SC2API.h</text>
</g>
<!-- Node2 -->
<g id="node2" class="node"><title>Node2</title>
<g id="a_node2"><a xlink:href="_s_c2_a_p_i_command_8h.html" target="_top" xlink:title="SC2API/include/SC2APICommand.h">
<polygon fill="white" stroke="black" points="0,-6 0,-25 175,-25 175,-6 0,-6"/>
<text text-anchor="middle" x="87.5" y="-13" font-family="Helvetica,sans-Serif" font-size="10.00">SC2API/include/SC2APICommand.h</text>
</a>
</g>
</g>
<!-- Node1&#45;&gt;Node2 -->
<g id="edge1" class="edge"><title>Node1&#45;&gt;Node2</title>
<path fill="none" stroke="midnightblue" d="M623.713,-70.89C522.984,-63.7556 339.539,-49.5695 183.5,-31 169.44,-29.3268 154.271,-27.1905 140.235,-25.0751"/>
<polygon fill="midnightblue" stroke="midnightblue" points="623.572,-74.3887 633.794,-71.6 624.064,-67.406 623.572,-74.3887"/>
</g>
<!-- Node3 -->
<g id="node3" class="node"><title>Node3</title>
<g id="a_node3"><a xlink:href="_s_c2_a_p_i_game_8h.html" target="_top" xlink:title="SC2API/include/SC2APIGame.h">
<polygon fill="white" stroke="black" points="193,-6 193,-25 350,-25 350,-6 193,-6"/>
<text text-anchor="middle" x="271.5" y="-13" font-family="Helvetica,sans-Serif" font-size="10.00">SC2API/include/SC2APIGame.h</text>
</a>
</g>
</g>
<!-- Node1&#45;&gt;Node3 -->
<g id="edge2" class="edge"><title>Node1&#45;&gt;Node3</title>
<path fill="none" stroke="midnightblue" d="M623.778,-66.7554C554.607,-58.1329 449.552,-44.5915 358.5,-31 346.384,-29.1915 333.345,-27.0972 321.142,-25.0725"/>
<polygon fill="midnightblue" stroke="midnightblue" points="623.362,-70.2305 633.717,-67.9913 624.225,-63.284 623.362,-70.2305"/>
</g>
<!-- Node4 -->
<g id="node4" class="node"><title>Node4</title>
<g id="a_node4"><a xlink:href="_s_c2_a_p_i_game_data_8h.html" target="_top" xlink:title="SC2API/include/SC2APIGame\lData.h">
<polygon fill="white" stroke="black" points="368,-0.5 368,-30.5 517,-30.5 517,-0.5 368,-0.5"/>
<text text-anchor="start" x="376" y="-18.5" font-family="Helvetica,sans-Serif" font-size="10.00">SC2API/include/SC2APIGame</text>
<text text-anchor="middle" x="442.5" y="-7.5" font-family="Helvetica,sans-Serif" font-size="10.00">Data.h</text>
</a>
</g>
</g>
<!-- Node1&#45;&gt;Node4 -->
<g id="edge3" class="edge"><title>Node1&#45;&gt;Node4</title>
<path fill="none" stroke="midnightblue" d="M652.717,-65.1689C610.724,-55.4467 548.831,-41.1175 503.07,-30.523"/>
<polygon fill="midnightblue" stroke="midnightblue" points="652.146,-68.6293 662.678,-67.4751 653.725,-61.8097 652.146,-68.6293"/>
</g>
<!-- Node5 -->
<g id="node5" class="node"><title>Node5</title>
<g id="a_node5"><a xlink:href="_s_c2_a_p_i_order_8h.html" target="_top" xlink:title="SC2API/include/SC2APIOrder.h">
<polygon fill="white" stroke="black" points="535,-6 535,-25 690,-25 690,-6 535,-6"/>
<text text-anchor="middle" x="612.5" y="-13" font-family="Helvetica,sans-Serif" font-size="10.00">SC2API/include/SC2APIOrder.h</text>
</a>
</g>
</g>
<!-- Node1&#45;&gt;Node5 -->
<g id="edge4" class="edge"><title>Node1&#45;&gt;Node5</title>
<path fill="none" stroke="midnightblue" d="M678.463,-61.6127C661.73,-50.1691 638.887,-34.546 624.942,-25.0091"/>
<polygon fill="midnightblue" stroke="midnightblue" points="676.805,-64.7189 687.035,-67.4751 680.757,-58.9409 676.805,-64.7189"/>
</g>
<!-- Node6 -->
<g id="node6" class="node"><title>Node6</title>
<g id="a_node6"><a xlink:href="_s_c2_a_p_i_player_8h.html" target="_top" xlink:title="SC2API/include/SC2APIPlayer.h">
<polygon fill="white" stroke="black" points="708.5,-6 708.5,-25 866.5,-25 866.5,-6 708.5,-6"/>
<text text-anchor="middle" x="787.5" y="-13" font-family="Helvetica,sans-Serif" font-size="10.00">SC2API/include/SC2APIPlayer.h</text>
</a>
</g>
</g>
<!-- Node1&#45;&gt;Node6 -->
<g id="edge5" class="edge"><title>Node1&#45;&gt;Node6</title>
<path fill="none" stroke="midnightblue" d="M720.779,-61.6127C737.704,-50.1691 760.81,-34.546 774.915,-25.0091"/>
<polygon fill="midnightblue" stroke="midnightblue" points="718.432,-58.9744 712.108,-67.4751 722.353,-64.7733 718.432,-58.9744"/>
</g>
<!-- Node7 -->
<g id="node7" class="node"><title>Node7</title>
<g id="a_node7"><a xlink:href="_s_c2_a_p_i_point_8h.html" target="_top" xlink:title="SC2API/include/SC2APIPoint.h">
<polygon fill="white" stroke="black" points="885,-6 885,-25 1038,-25 1038,-6 885,-6"/>
<text text-anchor="middle" x="961.5" y="-13" font-family="Helvetica,sans-Serif" font-size="10.00">SC2API/include/SC2APIPoint.h</text>
</a>
</g>
</g>
<!-- Node1&#45;&gt;Node7 -->
<g id="edge6" class="edge"><title>Node1&#45;&gt;Node7</title>
<path fill="none" stroke="midnightblue" d="M746.799,-65.2584C797.624,-53.716 877.371,-35.6056 924.031,-25.0091"/>
<polygon fill="midnightblue" stroke="midnightblue" points="746.015,-61.8473 737.038,-67.4751 747.565,-68.6735 746.015,-61.8473"/>
</g>
<!-- Node8 -->
<g id="node8" class="node"><title>Node8</title>
<g id="a_node8"><a xlink:href="_s_c2_a_p_i_unit_8h.html" target="_top" xlink:title="SC2API/include/SC2APIUnit.h">
<polygon fill="white" stroke="black" points="1056.5,-6 1056.5,-25 1204.5,-25 1204.5,-6 1056.5,-6"/>
<text text-anchor="middle" x="1130.5" y="-13" font-family="Helvetica,sans-Serif" font-size="10.00">SC2API/include/SC2APIUnit.h</text>
</a>
</g>
</g>
<!-- Node1&#45;&gt;Node8 -->
<g id="edge7" class="edge"><title>Node1&#45;&gt;Node8</title>
<path fill="none" stroke="midnightblue" d="M775.178,-67.1953C845.763,-58.7507 953.929,-45.216 1047.5,-31 1059.21,-29.2203 1071.82,-27.1152 1083.59,-25.0687"/>
<polygon fill="midnightblue" stroke="midnightblue" points="774.558,-63.7443 765.043,-68.4037 775.387,-70.6951 774.558,-63.7443"/>
</g>
<!-- Node9 -->
<g id="node9" class="node"><title>Node9</title>
<g id="a_node9"><a xlink:href="_utils_8h.html" target="_top" xlink:title="SC2API/include/Utils.h">
<polygon fill="white" stroke="black" points="1222.5,-6 1222.5,-25 1338.5,-25 1338.5,-6 1222.5,-6"/>
<text text-anchor="middle" x="1280.5" y="-13" font-family="Helvetica,sans-Serif" font-size="10.00">SC2API/include/Utils.h</text>
</a>
</g>
</g>
<!-- Node1&#45;&gt;Node9 -->
<g id="edge8" class="edge"><title>Node1&#45;&gt;Node9</title>
<path fill="none" stroke="midnightblue" d="M775.193,-72.3582C875.752,-66.8395 1058.73,-54.4277 1213.5,-31 1223.86,-29.4326 1235.01,-27.2294 1245.19,-25.0127"/>
<polygon fill="midnightblue" stroke="midnightblue" points="774.925,-68.8675 765.129,-72.9026 775.303,-75.8573 774.925,-68.8675"/>
</g>
</g>
</svg>
