<?xml version="1.0" encoding="UTF-8" standalone="no"?>
<!DOCTYPE svg PUBLIC "-//W3C//DTD SVG 1.1//EN"
 "http://www.w3.org/Graphics/SVG/1.1/DTD/svg11.dtd">
<!-- Generated by graphviz version 2.38.0 (20140413.2041)
 -->
<!-- Title: SC2API/include/SC2APIUnitFilterFlag.dependency.h Pages: 1 -->
<svg width="230pt" height="95pt"
 viewBox="0.00 0.00 230.00 95.00" xmlns="http://www.w3.org/2000/svg" xmlns:xlink="http://www.w3.org/1999/xlink">
<g id="graph0" class="graph" transform="scale(1 1) rotate(0) translate(4 91)">
<title>SC2API/include/SC2APIUnitFilterFlag.dependency.h</title>
<polygon fill="white" stroke="none" points="-4,4 -4,-91 226,-91 226,4 -4,4"/>
<!-- Node1 -->
<g id="node1" class="node"><title>Node1</title>
<polygon fill="#bfbfbf" stroke="black" points="33,-56.5 33,-86.5 173,-86.5 173,-56.5 33,-56.5"/>
<text text-anchor="start" x="41" y="-74.5" font-family="Helvetica,sans-Serif" font-size="10.00">SC2API/include/SC2APIUnit</text>
<text text-anchor="middle" x="103" y="-63.5" font-family="Helvetica,sans-Serif" font-size="10.00">FilterFlag.dependency.h</text>
</g>
<!-- Node2 -->
<g id="node2" class="node"><title>Node2</title>
<polygon fill="white" stroke="#bfbfbf" points="0,-0.5 0,-19.5 46,-19.5 46,-0.5 0,-0.5"/>
<text text-anchor="middle" x="23" y="-7.5" font-family="Helvetica,sans-Serif" font-size="10.00">cstdint</text>
</g>
<!-- Node1&#45;&gt;Node2 -->
<g id="edge1" class="edge"><title>Node1&#45;&gt;Node2</title>
<path fill="none" stroke="midnightblue" d="M84.0411,-56.3993C71.5773,-47.1293 55.3031,-35.0254 42.6933,-25.6469"/>
<polygon fill="midnightblue" stroke="midnightblue" points="44.7535,-22.8173 34.6407,-19.6578 40.576,-28.4341 44.7535,-22.8173"/>
</g>
<!-- Node3 -->
<g id="node3" class="node"><title>Node3</title>
<polygon fill="white" stroke="#bfbfbf" points="64.5,-0.5 64.5,-19.5 141.5,-19.5 141.5,-0.5 64.5,-0.5"/>
<text text-anchor="middle" x="103" y="-7.5" font-family="Helvetica,sans-Serif" font-size="10.00">Shared/Flag.h</text>
</g>
<!-- Node1&#45;&gt;Node3 -->
<g id="edge2" class="edge"><title>Node1&#45;&gt;Node3</title>
<path fill="none" stroke="midnightblue" d="M103,-56.3993C103,-48.4664 103,-38.458 103,-29.8583"/>
<polygon fill="midnightblue" stroke="midnightblue" points="106.5,-29.6577 103,-19.6578 99.5001,-29.6578 106.5,-29.6577"/>
</g>
<!-- Node4 -->
<g id="node4" class="node"><title>Node4</title>
<polygon fill="white" stroke="#bfbfbf" points="160,-0.5 160,-19.5 222,-19.5 222,-0.5 160,-0.5"/>
<text text-anchor="middle" x="191" y="-7.5" font-family="Helvetica,sans-Serif" font-size="10.00">type_traits</text>
</g>
<!-- Node1&#45;&gt;Node4 -->
<g id="edge3" class="edge"><title>Node1&#45;&gt;Node4</title>
<path fill="none" stroke="midnightblue" d="M123.855,-56.3993C137.697,-47.0402 155.811,-34.7924 169.736,-25.3771"/>
<polygon fill="midnightblue" stroke="midnightblue" points="171.872,-28.1585 178.195,-19.6578 167.951,-22.3596 171.872,-28.1585"/>
</g>
</g>
</svg>
