<?xml version="1.0" encoding="UTF-8" standalone="no"?>
<!DOCTYPE svg PUBLIC "-//W3C//DTD SVG 1.1//EN"
 "http://www.w3.org/Graphics/SVG/1.1/DTD/svg11.dtd">
<!-- Generated by graphviz version 2.38.0 (20140413.2041)
 -->
<!-- Title: SC2API/include/SC2API.h Pages: 1 -->
<svg width="503pt" height="84pt"
 viewBox="0.00 0.00 502.50 84.00" xmlns="http://www.w3.org/2000/svg" xmlns:xlink="http://www.w3.org/1999/xlink">
<g id="graph0" class="graph" transform="scale(1 1) rotate(0) translate(4 80)">
<title>SC2API/include/SC2API.h</title>
<polygon fill="white" stroke="none" points="-4,4 -4,-80 498.5,-80 498.5,4 -4,4"/>
<!-- Node1 -->
<g id="node1" class="node"><title>Node1</title>
<polygon fill="#bfbfbf" stroke="black" points="186,-56.5 186,-75.5 317,-75.5 317,-56.5 186,-56.5"/>
<text text-anchor="middle" x="251.5" y="-63.5" font-family="Helvetica,sans-Serif" font-size="10.00">SC2API/include/SC2API.h</text>
</g>
<!-- Node2 -->
<g id="node2" class="node"><title>Node2</title>
<g id="a_node2"><a xlink:href="_s_c2_a_p_i_game_8h.html" target="_top" xlink:title="SC2API/include/SC2APIGame.h">
<polygon fill="white" stroke="black" points="0,-0.5 0,-19.5 157,-19.5 157,-0.5 0,-0.5"/>
<text text-anchor="middle" x="78.5" y="-7.5" font-family="Helvetica,sans-Serif" font-size="10.00">SC2API/include/SC2APIGame.h</text>
</a>
</g>
</g>
<!-- Node1&#45;&gt;Node2 -->
<g id="edge1" class="edge"><title>Node1&#45;&gt;Node2</title>
<path fill="none" stroke="midnightblue" d="M214.453,-53.4363C181.836,-43.2551 135.09,-28.664 105.784,-19.5164"/>
<polygon fill="midnightblue" stroke="midnightblue" points="213.499,-56.8049 224.088,-56.4435 215.585,-50.1228 213.499,-56.8049"/>
</g>
<!-- Node3 -->
<g id="node3" class="node"><title>Node3</title>
<g id="a_node3"><a xlink:href="_s_c2_a_p_i_point_8h.html" target="_top" xlink:title="SC2API/include/SC2APIPoint.h">
<polygon fill="white" stroke="black" points="175,-0.5 175,-19.5 328,-19.5 328,-0.5 175,-0.5"/>
<text text-anchor="middle" x="251.5" y="-7.5" font-family="Helvetica,sans-Serif" font-size="10.00">SC2API/include/SC2APIPoint.h</text>
</a>
</g>
</g>
<!-- Node1&#45;&gt;Node3 -->
<g id="edge2" class="edge"><title>Node1&#45;&gt;Node3</title>
<path fill="none" stroke="midnightblue" d="M251.5,-45.8045C251.5,-36.9102 251.5,-26.7798 251.5,-19.7511"/>
<polygon fill="midnightblue" stroke="midnightblue" points="248,-46.083 251.5,-56.083 255,-46.083 248,-46.083"/>
</g>
<!-- Node4 -->
<g id="node4" class="node"><title>Node4</title>
<g id="a_node4"><a xlink:href="_s_c2_a_p_i_unit_8h.html" target="_top" xlink:title="SC2API/include/SC2APIUnit.h">
<polygon fill="white" stroke="black" points="346.5,-0.5 346.5,-19.5 494.5,-19.5 494.5,-0.5 346.5,-0.5"/>
<text text-anchor="middle" x="420.5" y="-7.5" font-family="Helvetica,sans-Serif" font-size="10.00">SC2API/include/SC2APIUnit.h</text>
</a>
</g>
</g>
<!-- Node1&#45;&gt;Node4 -->
<g id="edge3" class="edge"><title>Node1&#45;&gt;Node4</title>
<path fill="none" stroke="midnightblue" d="M288.103,-53.3044C319.947,-43.1294 365.342,-28.6246 393.847,-19.5164"/>
<polygon fill="midnightblue" stroke="midnightblue" points="286.739,-50.0659 278.279,-56.4435 288.869,-56.7337 286.739,-50.0659"/>
</g>
</g>
</svg>
