<?xml version="1.0" encoding="UTF-8" standalone="no"?>
<!DOCTYPE svg PUBLIC "-//W3C//DTD SVG 1.1//EN"
 "http://www.w3.org/Graphics/SVG/1.1/DTD/svg11.dtd">
<!-- Generated by graphviz version 2.38.0 (20140413.2041)
 -->
<!-- Title: SC2API/include/SC2APIPlayer.h Pages: 1 -->
<svg width="493pt" height="140pt"
 viewBox="0.00 0.00 493.00 140.00" xmlns="http://www.w3.org/2000/svg" xmlns:xlink="http://www.w3.org/1999/xlink">
<g id="graph0" class="graph" transform="scale(1 1) rotate(0) translate(4 136)">
<title>SC2API/include/SC2APIPlayer.h</title>
<polygon fill="white" stroke="none" points="-4,4 -4,-136 489,-136 489,4 -4,4"/>
<!-- Node1 -->
<g id="node1" class="node"><title>Node1</title>
<polygon fill="#bfbfbf" stroke="black" points="148.5,-112.5 148.5,-131.5 306.5,-131.5 306.5,-112.5 148.5,-112.5"/>
<text text-anchor="middle" x="227.5" y="-119.5" font-family="Helvetica,sans-Serif" font-size="10.00">SC2API/include/SC2APIPlayer.h</text>
</g>
<!-- Node2 -->
<g id="node2" class="node"><title>Node2</title>
<g id="a_node2"><a xlink:href="_s_c2_a_p_i_8h.html" target="_top" xlink:title="SC2API.h">
<polygon fill="white" stroke="black" points="198,-56.5 198,-75.5 257,-75.5 257,-56.5 198,-56.5"/>
<text text-anchor="middle" x="227.5" y="-63.5" font-family="Helvetica,sans-Serif" font-size="10.00">SC2API.h</text>
</a>
</g>
</g>
<!-- Node1&#45;&gt;Node2 -->
<g id="edge1" class="edge"><title>Node1&#45;&gt;Node2</title>
<path fill="none" stroke="midnightblue" d="M227.5,-112.083C227.5,-105.006 227.5,-94.8611 227.5,-85.9865"/>
<polygon fill="midnightblue" stroke="midnightblue" points="231,-85.751 227.5,-75.7511 224,-85.7511 231,-85.751"/>
</g>
<!-- Node3 -->
<g id="node3" class="node"><title>Node3</title>
<polygon fill="white" stroke="#bfbfbf" points="0,-0.5 0,-19.5 95,-19.5 95,-0.5 0,-0.5"/>
<text text-anchor="middle" x="47.5" y="-7.5" font-family="Helvetica,sans-Serif" font-size="10.00">zycore/Signal.hpp</text>
</g>
<!-- Node2&#45;&gt;Node3 -->
<g id="edge2" class="edge"><title>Node2&#45;&gt;Node3</title>
<path fill="none" stroke="midnightblue" d="M198.978,-56.4435C168.434,-47.2801 119.792,-32.6876 85.8973,-22.5192"/>
<polygon fill="midnightblue" stroke="midnightblue" points="86.4721,-19.0376 75.8881,-19.5164 84.4606,-25.7424 86.4721,-19.0376"/>
</g>
<!-- Node4 -->
<g id="node4" class="node"><title>Node4</title>
<polygon fill="white" stroke="#bfbfbf" points="113.5,-0.5 113.5,-19.5 217.5,-19.5 217.5,-0.5 113.5,-0.5"/>
<text text-anchor="middle" x="165.5" y="-7.5" font-family="Helvetica,sans-Serif" font-size="10.00">zycore/Optional.hpp</text>
</g>
<!-- Node2&#45;&gt;Node4 -->
<g id="edge3" class="edge"><title>Node2&#45;&gt;Node4</title>
<path fill="none" stroke="midnightblue" d="M217.539,-56.324C208.373,-48.3414 194.563,-36.3128 183.472,-26.6529"/>
<polygon fill="midnightblue" stroke="midnightblue" points="185.482,-23.7624 175.643,-19.8339 180.885,-29.041 185.482,-23.7624"/>
</g>
<!-- Node5 -->
<g id="node5" class="node"><title>Node5</title>
<polygon fill="white" stroke="#bfbfbf" points="235.5,-0.5 235.5,-19.5 343.5,-19.5 343.5,-0.5 235.5,-0.5"/>
<text text-anchor="middle" x="289.5" y="-7.5" font-family="Helvetica,sans-Serif" font-size="10.00">zycore/Singleton.hpp</text>
</g>
<!-- Node2&#45;&gt;Node5 -->
<g id="edge4" class="edge"><title>Node2&#45;&gt;Node5</title>
<path fill="none" stroke="midnightblue" d="M237.461,-56.324C246.627,-48.3414 260.437,-36.3128 271.528,-26.6529"/>
<polygon fill="midnightblue" stroke="midnightblue" points="274.115,-29.041 279.357,-19.8339 269.518,-23.7624 274.115,-29.041"/>
</g>
<!-- Node6 -->
<g id="node6" class="node"><title>Node6</title>
<polygon fill="white" stroke="#bfbfbf" points="362,-0.5 362,-19.5 485,-19.5 485,-0.5 362,-0.5"/>
<text text-anchor="middle" x="423.5" y="-7.5" font-family="Helvetica,sans-Serif" font-size="10.00">zycore/SignalObject.hpp</text>
</g>
<!-- Node2&#45;&gt;Node6 -->
<g id="edge5" class="edge"><title>Node2&#45;&gt;Node6</title>
<path fill="none" stroke="midnightblue" d="M257.268,-56.7986C290.648,-47.6021 344.993,-32.6294 382.407,-22.3216"/>
<polygon fill="midnightblue" stroke="midnightblue" points="383.768,-25.5772 392.479,-19.5467 381.908,-18.8286 383.768,-25.5772"/>
</g>
</g>
</svg>
