<?xml version="1.0" encoding="UTF-8" standalone="no"?>
<!DOCTYPE svg PUBLIC "-//W3C//DTD SVG 1.1//EN"
 "http://www.w3.org/Graphics/SVG/1.1/DTD/svg11.dtd">
<!-- Generated by graphviz version 2.38.0 (20140413.2041)
 -->
<!-- Title: SC2API/include/SC2APIPoint.h Pages: 1 -->
<svg width="467pt" height="95pt"
 viewBox="0.00 0.00 466.50 95.00" xmlns="http://www.w3.org/2000/svg" xmlns:xlink="http://www.w3.org/1999/xlink">
<g id="graph0" class="graph" transform="scale(1 1) rotate(0) translate(4 91)">
<title>SC2API/include/SC2APIPoint.h</title>
<polygon fill="white" stroke="none" points="-4,4 -4,-91 462.5,-91 462.5,4 -4,4"/>
<!-- Node1 -->
<g id="node1" class="node"><title>Node1</title>
<polygon fill="#bfbfbf" stroke="black" points="146,-67.5 146,-86.5 299,-86.5 299,-67.5 146,-67.5"/>
<text text-anchor="middle" x="222.5" y="-74.5" font-family="Helvetica,sans-Serif" font-size="10.00">SC2API/include/SC2APIPoint.h</text>
</g>
<!-- Node2 -->
<g id="node2" class="node"><title>Node2</title>
<g id="a_node2"><a xlink:href="_cheats_8h.html" target="_top" xlink:title="SC2API/include/Cheats.h">
<polygon fill="white" stroke="black" points="0,-6 0,-25 127,-25 127,-6 0,-6"/>
<text text-anchor="middle" x="63.5" y="-13" font-family="Helvetica,sans-Serif" font-size="10.00">SC2API/include/Cheats.h</text>
</a>
</g>
</g>
<!-- Node1&#45;&gt;Node2 -->
<g id="edge1" class="edge"><title>Node1&#45;&gt;Node2</title>
<path fill="none" stroke="midnightblue" d="M190.253,-63.9329C159.35,-52.3683 113.493,-35.2083 86.2386,-25.0091"/>
<polygon fill="midnightblue" stroke="midnightblue" points="189.127,-67.2483 199.719,-67.4751 191.58,-60.6923 189.127,-67.2483"/>
</g>
<!-- Node3 -->
<g id="node3" class="node"><title>Node3</title>
<g id="a_node3"><a xlink:href="_s_c2_a_p_i_order_8h.html" target="_top" xlink:title="SC2API/include/SC2APIOrder.h">
<polygon fill="white" stroke="black" points="145,-6 145,-25 300,-25 300,-6 145,-6"/>
<text text-anchor="middle" x="222.5" y="-13" font-family="Helvetica,sans-Serif" font-size="10.00">SC2API/include/SC2APIOrder.h</text>
</a>
</g>
</g>
<!-- Node1&#45;&gt;Node3 -->
<g id="edge2" class="edge"><title>Node1&#45;&gt;Node3</title>
<path fill="none" stroke="midnightblue" d="M222.5,-57.3165C222.5,-46.4962 222.5,-33.398 222.5,-25.0091"/>
<polygon fill="midnightblue" stroke="midnightblue" points="219,-57.4751 222.5,-67.4751 226,-57.4751 219,-57.4751"/>
</g>
<!-- Node4 -->
<g id="node4" class="node"><title>Node4</title>
<g id="a_node4"><a xlink:href="_s_c2_a_p_i_unit_test_system_8h.html" target="_top" xlink:title="SC2API/include/SC2APIUnit\lTestSystem.h">
<polygon fill="white" stroke="black" points="318.5,-0.5 318.5,-30.5 458.5,-30.5 458.5,-0.5 318.5,-0.5"/>
<text text-anchor="start" x="326.5" y="-18.5" font-family="Helvetica,sans-Serif" font-size="10.00">SC2API/include/SC2APIUnit</text>
<text text-anchor="middle" x="388.5" y="-7.5" font-family="Helvetica,sans-Serif" font-size="10.00">TestSystem.h</text>
</a>
</g>
</g>
<!-- Node1&#45;&gt;Node4 -->
<g id="edge3" class="edge"><title>Node1&#45;&gt;Node4</title>
<path fill="none" stroke="midnightblue" d="M256.047,-63.9755C283.037,-54.3016 321.007,-40.6919 349.377,-30.523"/>
<polygon fill="midnightblue" stroke="midnightblue" points="254.516,-60.8061 246.284,-67.4751 256.878,-67.3956 254.516,-60.8061"/>
</g>
</g>
</svg>
