<?xml version="1.0" encoding="UTF-8" standalone="no"?>
<!DOCTYPE svg PUBLIC "-//W3C//DTD SVG 1.1//EN"
 "http://www.w3.org/Graphics/SVG/1.1/DTD/svg11.dtd">
<!-- Generated by graphviz version 2.38.0 (20140413.2041)
 -->
<!-- Title: SC2API/include/SC2APIUnitFilterFlag.h Pages: 1 -->
<svg width="230pt" height="151pt"
 viewBox="0.00 0.00 230.00 151.00" xmlns="http://www.w3.org/2000/svg" xmlns:xlink="http://www.w3.org/1999/xlink">
<g id="graph0" class="graph" transform="scale(1 1) rotate(0) translate(4 147)">
<title>SC2API/include/SC2APIUnitFilterFlag.h</title>
<polygon fill="white" stroke="none" points="-4,4 -4,-147 226,-147 226,4 -4,4"/>
<!-- Node1 -->
<g id="node1" class="node"><title>Node1</title>
<polygon fill="#bfbfbf" stroke="black" points="33,-112.5 33,-142.5 173,-142.5 173,-112.5 33,-112.5"/>
<text text-anchor="start" x="41" y="-130.5" font-family="Helvetica,sans-Serif" font-size="10.00">SC2API/include/SC2APIUnit</text>
<text text-anchor="middle" x="103" y="-119.5" font-family="Helvetica,sans-Serif" font-size="10.00">FilterFlag.h</text>
</g>
<!-- Node2 -->
<g id="node2" class="node"><title>Node2</title>
<g id="a_node2"><a xlink:href="_s_c2_a_p_i_unit_filter_flag_8dependency_8h.html" target="_top" xlink:title="SC2APIUnitFilterFlag.dependency.h">
<polygon fill="white" stroke="black" points="16.5,-56.5 16.5,-75.5 189.5,-75.5 189.5,-56.5 16.5,-56.5"/>
<text text-anchor="middle" x="103" y="-63.5" font-family="Helvetica,sans-Serif" font-size="10.00">SC2APIUnitFilterFlag.dependency.h</text>
</a>
</g>
</g>
<!-- Node1&#45;&gt;Node2 -->
<g id="edge1" class="edge"><title>Node1&#45;&gt;Node2</title>
<path fill="none" stroke="midnightblue" d="M103,-112.399C103,-104.466 103,-94.458 103,-85.8583"/>
<polygon fill="midnightblue" stroke="midnightblue" points="106.5,-85.6577 103,-75.6578 99.5001,-85.6578 106.5,-85.6577"/>
</g>
<!-- Node3 -->
<g id="node3" class="node"><title>Node3</title>
<polygon fill="white" stroke="#bfbfbf" points="0,-0.5 0,-19.5 46,-19.5 46,-0.5 0,-0.5"/>
<text text-anchor="middle" x="23" y="-7.5" font-family="Helvetica,sans-Serif" font-size="10.00">cstdint</text>
</g>
<!-- Node2&#45;&gt;Node3 -->
<g id="edge2" class="edge"><title>Node2&#45;&gt;Node3</title>
<path fill="none" stroke="midnightblue" d="M90.1466,-56.324C77.7836,-47.979 58.8699,-35.2122 44.2628,-25.3524"/>
<polygon fill="midnightblue" stroke="midnightblue" points="46.0682,-22.3483 35.8215,-19.6545 42.1518,-28.1503 46.0682,-22.3483"/>
</g>
<!-- Node4 -->
<g id="node4" class="node"><title>Node4</title>
<polygon fill="white" stroke="#bfbfbf" points="64.5,-0.5 64.5,-19.5 141.5,-19.5 141.5,-0.5 64.5,-0.5"/>
<text text-anchor="middle" x="103" y="-7.5" font-family="Helvetica,sans-Serif" font-size="10.00">Shared/Flag.h</text>
</g>
<!-- Node2&#45;&gt;Node4 -->
<g id="edge3" class="edge"><title>Node2&#45;&gt;Node4</title>
<path fill="none" stroke="midnightblue" d="M103,-56.083C103,-49.0059 103,-38.8611 103,-29.9865"/>
<polygon fill="midnightblue" stroke="midnightblue" points="106.5,-29.751 103,-19.7511 99.5001,-29.7511 106.5,-29.751"/>
</g>
<!-- Node5 -->
<g id="node5" class="node"><title>Node5</title>
<polygon fill="white" stroke="#bfbfbf" points="160,-0.5 160,-19.5 222,-19.5 222,-0.5 160,-0.5"/>
<text text-anchor="middle" x="191" y="-7.5" font-family="Helvetica,sans-Serif" font-size="10.00">type_traits</text>
</g>
<!-- Node2&#45;&gt;Node5 -->
<g id="edge4" class="edge"><title>Node2&#45;&gt;Node5</title>
<path fill="none" stroke="midnightblue" d="M117.139,-56.324C130.866,-47.9002 151.936,-34.9709 168.064,-25.0741"/>
<polygon fill="midnightblue" stroke="midnightblue" points="170.204,-27.8678 176.896,-19.6545 166.543,-21.9016 170.204,-27.8678"/>
</g>
</g>
</svg>
