<?xml version="1.0" encoding="UTF-8" standalone="no"?>
<!DOCTYPE svg PUBLIC "-//W3C//DTD SVG 1.1//EN"
 "http://www.w3.org/Graphics/SVG/1.1/DTD/svg11.dtd">
<!-- Generated by graphviz version 2.38.0 (20140413.2041)
 -->
<!-- Title: SC2API/include/SC2API.h Pages: 1 -->
<svg width="1342pt" height="162pt"
 viewBox="0.00 0.00 1341.50 162.00" xmlns="http://www.w3.org/2000/svg" xmlns:xlink="http://www.w3.org/1999/xlink">
<g id="graph0" class="graph" transform="scale(1 1) rotate(0) translate(4 158)">
<title>SC2API/include/SC2API.h</title>
<polygon fill="white" stroke="none" points="-4,4 -4,-158 1337.5,-158 1337.5,4 -4,4"/>
<!-- Node1 -->
<g id="node1" class="node"><title>Node1</title>
<polygon fill="#bfbfbf" stroke="black" points="470,-134.5 470,-153.5 601,-153.5 601,-134.5 470,-134.5"/>
<text text-anchor="middle" x="535.5" y="-141.5" font-family="Helvetica,sans-Serif" font-size="10.00">SC2API/include/SC2API.h</text>
</g>
<!-- Node2 -->
<g id="node2" class="node"><title>Node2</title>
<g id="a_node2"><a xlink:href="_cheats_8h.html" target="_top" xlink:title="SC2API/include/Cheats.h">
<polygon fill="white" stroke="black" points="0,-6 0,-25 127,-25 127,-6 0,-6"/>
<text text-anchor="middle" x="63.5" y="-13" font-family="Helvetica,sans-Serif" font-size="10.00">SC2API/include/Cheats.h</text>
</a>
</g>
</g>
<!-- Node1&#45;&gt;Node2 -->
<g id="edge1" class="edge"><title>Node1&#45;&gt;Node2</title>
<path fill="none" stroke="midnightblue" d="M459.602,-140.226C337.977,-135.083 110.195,-122.309 82.5,-98 61.317,-79.4066 61.3282,-42.19 62.5761,-25.2538"/>
<polygon fill="midnightblue" stroke="midnightblue" points="459.464,-143.723 469.601,-140.642 459.755,-136.73 459.464,-143.723"/>
</g>
<!-- Node3 -->
<g id="node3" class="node"><title>Node3</title>
<g id="a_node3"><a xlink:href="_s_c2_a_p_i_unit_8h.html" target="_top" xlink:title="SC2API/include/SC2APIUnit.h">
<polygon fill="white" stroke="black" points="91.5,-73 91.5,-92 239.5,-92 239.5,-73 91.5,-73"/>
<text text-anchor="middle" x="165.5" y="-80" font-family="Helvetica,sans-Serif" font-size="10.00">SC2API/include/SC2APIUnit.h</text>
</a>
</g>
</g>
<!-- Node1&#45;&gt;Node3 -->
<g id="edge2" class="edge"><title>Node1&#45;&gt;Node3</title>
<path fill="none" stroke="midnightblue" d="M471.713,-132.916C414.548,-123.856 328.405,-110.148 253.5,-98 241.731,-96.0914 229.081,-94.0192 217.144,-92.0544"/>
<polygon fill="midnightblue" stroke="midnightblue" points="471.264,-136.388 481.688,-134.496 472.359,-129.474 471.264,-136.388"/>
</g>
<!-- Node4 -->
<g id="node4" class="node"><title>Node4</title>
<g id="a_node4"><a xlink:href="_s_c2_a_p_i_unit_group_8h.html" target="_top" xlink:title="SC2API/include/SC2APIUnit\lGroup.h">
<polygon fill="white" stroke="black" points="145.5,-0.5 145.5,-30.5 285.5,-30.5 285.5,-0.5 145.5,-0.5"/>
<text text-anchor="start" x="153.5" y="-18.5" font-family="Helvetica,sans-Serif" font-size="10.00">SC2API/include/SC2APIUnit</text>
<text text-anchor="middle" x="215.5" y="-7.5" font-family="Helvetica,sans-Serif" font-size="10.00">Group.h</text>
</a>
</g>
</g>
<!-- Node1&#45;&gt;Node4 -->
<g id="edge14" class="edge"><title>Node1&#45;&gt;Node4</title>
<path fill="none" stroke="midnightblue" d="M459.739,-142.252C407.964,-138.754 339.413,-128.048 286.5,-98 257.781,-81.6908 234.992,-49.2853 223.553,-30.6245"/>
<polygon fill="midnightblue" stroke="midnightblue" points="459.67,-145.754 469.861,-142.859 460.089,-138.766 459.67,-145.754"/>
</g>
<!-- Node5 -->
<g id="node5" class="node"><title>Node5</title>
<g id="a_node5"><a xlink:href="_s_c2_a_p_i_point_8h.html" target="_top" xlink:title="SC2API/include/SC2APIPoint.h">
<polygon fill="white" stroke="black" points="296,-73 296,-92 449,-92 449,-73 296,-73"/>
<text text-anchor="middle" x="372.5" y="-80" font-family="Helvetica,sans-Serif" font-size="10.00">SC2API/include/SC2APIPoint.h</text>
</a>
</g>
</g>
<!-- Node1&#45;&gt;Node5 -->
<g id="edge5" class="edge"><title>Node1&#45;&gt;Node5</title>
<path fill="none" stroke="midnightblue" d="M502.442,-130.933C470.761,-119.368 423.751,-102.208 395.811,-92.0091"/>
<polygon fill="midnightblue" stroke="midnightblue" points="501.552,-134.334 512.146,-134.475 503.953,-127.758 501.552,-134.334"/>
</g>
<!-- Node6 -->
<g id="node6" class="node"><title>Node6</title>
<g id="a_node6"><a xlink:href="_s_c2_a_p_i_order_8h.html" target="_top" xlink:title="SC2API/include/SC2APIOrder.h">
<polygon fill="white" stroke="black" points="462,-6 462,-25 617,-25 617,-6 462,-6"/>
<text text-anchor="middle" x="539.5" y="-13" font-family="Helvetica,sans-Serif" font-size="10.00">SC2API/include/SC2APIOrder.h</text>
</a>
</g>
</g>
<!-- Node1&#45;&gt;Node6 -->
<g id="edge12" class="edge"><title>Node1&#45;&gt;Node6</title>
<path fill="none" stroke="midnightblue" d="M517.391,-127.237C509.688,-119.335 501.557,-109.092 497.5,-98 492.767,-85.0605 492.816,-79.9571 497.5,-67 503.703,-49.8415 518.558,-34.4045 528.828,-25.2398"/>
<polygon fill="midnightblue" stroke="midnightblue" points="515.138,-129.925 524.786,-134.305 519.975,-124.865 515.138,-129.925"/>
</g>
<!-- Node8 -->
<g id="node8" class="node"><title>Node8</title>
<g id="a_node8"><a xlink:href="_s_c2_a_p_i_command_8h.html" target="_top" xlink:title="SC2API/include/SC2APICommand.h">
<polygon fill="white" stroke="black" points="506,-73 506,-92 681,-92 681,-73 506,-73"/>
<text text-anchor="middle" x="593.5" y="-80" font-family="Helvetica,sans-Serif" font-size="10.00">SC2API/include/SC2APICommand.h</text>
</a>
</g>
</g>
<!-- Node1&#45;&gt;Node8 -->
<g id="edge9" class="edge"><title>Node1&#45;&gt;Node8</title>
<path fill="none" stroke="midnightblue" d="M551.099,-126.997C562.077,-115.736 576.339,-101.104 585.205,-92.0091"/>
<polygon fill="midnightblue" stroke="midnightblue" points="548.284,-124.871 543.81,-134.475 553.297,-129.757 548.284,-124.871"/>
</g>
<!-- Node9 -->
<g id="node9" class="node"><title>Node9</title>
<g id="a_node9"><a xlink:href="_s_c2_a_p_i_game_8h.html" target="_top" xlink:title="SC2API/include/SC2APIGame.h">
<polygon fill="white" stroke="black" points="699,-73 699,-92 856,-92 856,-73 699,-73"/>
<text text-anchor="middle" x="777.5" y="-80" font-family="Helvetica,sans-Serif" font-size="10.00">SC2API/include/SC2APIGame.h</text>
</a>
</g>
</g>
<!-- Node1&#45;&gt;Node9 -->
<g id="edge10" class="edge"><title>Node1&#45;&gt;Node9</title>
<path fill="none" stroke="midnightblue" d="M580.072,-132.041C627.053,-120.49 700.062,-102.539 742.892,-92.0091"/>
<polygon fill="midnightblue" stroke="midnightblue" points="579.048,-128.689 570.173,-134.475 580.719,-135.486 579.048,-128.689"/>
</g>
<!-- Node10 -->
<g id="node10" class="node"><title>Node10</title>
<g id="a_node10"><a xlink:href="_s_c2_a_p_i_game_data_8h.html" target="_top" xlink:title="SC2API/include/SC2APIGame\lData.h">
<polygon fill="white" stroke="black" points="874,-67.5 874,-97.5 1023,-97.5 1023,-67.5 874,-67.5"/>
<text text-anchor="start" x="882" y="-85.5" font-family="Helvetica,sans-Serif" font-size="10.00">SC2API/include/SC2APIGame</text>
<text text-anchor="middle" x="948.5" y="-74.5" font-family="Helvetica,sans-Serif" font-size="10.00">Data.h</text>
</a>
</g>
</g>
<!-- Node1&#45;&gt;Node10 -->
<g id="edge11" class="edge"><title>Node1&#45;&gt;Node10</title>
<path fill="none" stroke="midnightblue" d="M611.077,-133.511C678.04,-124.91 778.411,-111.54 865.5,-98 868.246,-97.573 871.042,-97.1295 873.865,-96.6744"/>
<polygon fill="midnightblue" stroke="midnightblue" points="610.51,-130.055 601.035,-134.798 611.399,-136.999 610.51,-130.055"/>
</g>
<!-- Node11 -->
<g id="node11" class="node"><title>Node11</title>
<g id="a_node11"><a xlink:href="_s_c2_a_p_i_player_8h.html" target="_top" xlink:title="SC2API/include/SC2APIPlayer.h">
<polygon fill="white" stroke="black" points="1041.5,-73 1041.5,-92 1199.5,-92 1199.5,-73 1041.5,-73"/>
<text text-anchor="middle" x="1120.5" y="-80" font-family="Helvetica,sans-Serif" font-size="10.00">SC2API/include/SC2APIPlayer.h</text>
</a>
</g>
</g>
<!-- Node1&#45;&gt;Node11 -->
<g id="edge13" class="edge"><title>Node1&#45;&gt;Node11</title>
<path fill="none" stroke="midnightblue" d="M611.259,-137.869C708.871,-130.861 883.714,-116.968 1032.5,-98 1045.56,-96.3356 1059.64,-94.1779 1072.64,-92.038"/>
<polygon fill="midnightblue" stroke="midnightblue" points="610.916,-134.384 601.19,-138.587 611.414,-141.366 610.916,-134.384"/>
</g>
<!-- Node12 -->
<g id="node12" class="node"><title>Node12</title>
<g id="a_node12"><a xlink:href="_utils_8h.html" target="_top" xlink:title="SC2API/include/Utils.h">
<polygon fill="white" stroke="black" points="1217.5,-73 1217.5,-92 1333.5,-92 1333.5,-73 1217.5,-73"/>
<text text-anchor="middle" x="1275.5" y="-80" font-family="Helvetica,sans-Serif" font-size="10.00">SC2API/include/Utils.h</text>
</a>
</g>
</g>
<!-- Node1&#45;&gt;Node12 -->
<g id="edge15" class="edge"><title>Node1&#45;&gt;Node12</title>
<path fill="none" stroke="midnightblue" d="M611.5,-141.537C736.568,-138.32 993.361,-128.306 1208.5,-98 1218.99,-96.5225 1230.28,-94.3198 1240.55,-92.0747"/>
<polygon fill="midnightblue" stroke="midnightblue" points="611.178,-138.044 601.269,-141.793 611.353,-145.042 611.178,-138.044"/>
</g>
<!-- Node3&#45;&gt;Node2 -->
<g id="edge3" class="edge"><title>Node3&#45;&gt;Node2</title>
<path fill="none" stroke="midnightblue" d="M143.168,-67.2687C122.978,-54.4026 93.9101,-35.879 77.0382,-25.1273"/>
<polygon fill="midnightblue" stroke="midnightblue" points="141.43,-70.3113 151.744,-72.7338 145.192,-64.408 141.43,-70.3113"/>
</g>
<!-- Node3&#45;&gt;Node4 -->
<g id="edge4" class="edge"><title>Node3&#45;&gt;Node4</title>
<path fill="none" stroke="midnightblue" d="M178.444,-64.6729C186.582,-54.0939 196.96,-40.6019 204.662,-30.589"/>
<polygon fill="midnightblue" stroke="midnightblue" points="175.566,-62.6735 172.243,-72.7338 181.115,-66.9416 175.566,-62.6735"/>
</g>
<!-- Node5&#45;&gt;Node2 -->
<g id="edge6" class="edge"><title>Node5&#45;&gt;Node2</title>
<path fill="none" stroke="midnightblue" d="M321.648,-70.803C260.84,-58.0117 160.278,-36.8578 104.304,-25.0834"/>
<polygon fill="midnightblue" stroke="midnightblue" points="321.28,-74.302 331.786,-72.9355 322.721,-67.4519 321.28,-74.302"/>
</g>
<!-- Node5&#45;&gt;Node6 -->
<g id="edge7" class="edge"><title>Node5&#45;&gt;Node6</title>
<path fill="none" stroke="midnightblue" d="M404.348,-69.1041C437.506,-56.1984 488.559,-36.3272 517.498,-25.0637"/>
<polygon fill="midnightblue" stroke="midnightblue" points="402.726,-65.9796 394.676,-72.8685 405.265,-72.5029 402.726,-65.9796"/>
</g>
<!-- Node7 -->
<g id="node7" class="node"><title>Node7</title>
<g id="a_node7"><a xlink:href="_s_c2_a_p_i_unit_test_system_8h.html" target="_top" xlink:title="SC2API/include/SC2APIUnit\lTestSystem.h">
<polygon fill="white" stroke="black" points="303.5,-0.5 303.5,-30.5 443.5,-30.5 443.5,-0.5 303.5,-0.5"/>
<text text-anchor="start" x="311.5" y="-18.5" font-family="Helvetica,sans-Serif" font-size="10.00">SC2API/include/SC2APIUnit</text>
<text text-anchor="middle" x="373.5" y="-7.5" font-family="Helvetica,sans-Serif" font-size="10.00">TestSystem.h</text>
</a>
</g>
</g>
<!-- Node5&#45;&gt;Node7 -->
<g id="edge8" class="edge"><title>Node5&#45;&gt;Node7</title>
<path fill="none" stroke="midnightblue" d="M372.794,-62.4107C372.95,-52.222 373.14,-39.901 373.283,-30.589"/>
<polygon fill="midnightblue" stroke="midnightblue" points="369.289,-62.6811 372.635,-72.7338 376.288,-62.7889 369.289,-62.6811"/>
</g>
</g>
</svg>
