<?xml version="1.0" encoding="UTF-8" standalone="no"?>
<!DOCTYPE svg PUBLIC "-//W3C//DTD SVG 1.1//EN"
 "http://www.w3.org/Graphics/SVG/1.1/DTD/svg11.dtd">
<!-- Generated by graphviz version 2.38.0 (20140413.2041)
 -->
<!-- Title: SC2API/include/SC2APIUnitGroup.h Pages: 1 -->
<svg width="734pt" height="207pt"
 viewBox="0.00 0.00 733.50 207.00" xmlns="http://www.w3.org/2000/svg" xmlns:xlink="http://www.w3.org/1999/xlink">
<g id="graph0" class="graph" transform="scale(1 1) rotate(0) translate(4 203)">
<title>SC2API/include/SC2APIUnitGroup.h</title>
<polygon fill="white" stroke="none" points="-4,4 -4,-203 729.5,-203 729.5,4 -4,4"/>
<!-- Node1 -->
<g id="node1" class="node"><title>Node1</title>
<polygon fill="#bfbfbf" stroke="black" points="352.5,-168.5 352.5,-198.5 492.5,-198.5 492.5,-168.5 352.5,-168.5"/>
<text text-anchor="start" x="360.5" y="-186.5" font-family="Helvetica,sans-Serif" font-size="10.00">SC2API/include/SC2APIUnit</text>
<text text-anchor="middle" x="422.5" y="-175.5" font-family="Helvetica,sans-Serif" font-size="10.00">Group.h</text>
</g>
<!-- Node2 -->
<g id="node2" class="node"><title>Node2</title>
<g id="a_node2"><a xlink:href="_s_c2_a_p_i_8h.html" target="_top" xlink:title="SC2API.h">
<polygon fill="white" stroke="black" points="260,-56.5 260,-75.5 319,-75.5 319,-56.5 260,-56.5"/>
<text text-anchor="middle" x="289.5" y="-63.5" font-family="Helvetica,sans-Serif" font-size="10.00">SC2API.h</text>
</a>
</g>
</g>
<!-- Node1&#45;&gt;Node2 -->
<g id="edge1" class="edge"><title>Node1&#45;&gt;Node2</title>
<path fill="none" stroke="midnightblue" d="M376.156,-168.484C356.031,-160.475 333.464,-148.641 317.5,-132 305.15,-119.126 297.803,-99.9479 293.755,-85.7569"/>
<polygon fill="midnightblue" stroke="midnightblue" points="297.044,-84.4881 291.185,-75.661 290.26,-86.2154 297.044,-84.4881"/>
</g>
<!-- Node7 -->
<g id="node7" class="node"><title>Node7</title>
<g id="a_node7"><a xlink:href="_s_c2_a_p_i_unit_8h.html" target="_top" xlink:title="SC2APIUnit.h">
<polygon fill="white" stroke="black" points="327,-112.5 327,-131.5 404,-131.5 404,-112.5 327,-112.5"/>
<text text-anchor="middle" x="365.5" y="-119.5" font-family="Helvetica,sans-Serif" font-size="10.00">SC2APIUnit.h</text>
</a>
</g>
</g>
<!-- Node1&#45;&gt;Node7 -->
<g id="edge6" class="edge"><title>Node1&#45;&gt;Node7</title>
<path fill="none" stroke="midnightblue" d="M408.992,-168.399C400.538,-159.575 389.625,-148.183 380.845,-139.018"/>
<polygon fill="midnightblue" stroke="midnightblue" points="383.239,-136.458 373.794,-131.658 378.184,-141.3 383.239,-136.458"/>
</g>
<!-- Node9 -->
<g id="node9" class="node"><title>Node9</title>
<g id="a_node9"><a xlink:href="_s_c2_a_p_i_unit_filter_flag_8h.html" target="_top" xlink:title="SC2APIUnitFilterFlag.h">
<polygon fill="white" stroke="black" points="422,-112.5 422,-131.5 539,-131.5 539,-112.5 422,-112.5"/>
<text text-anchor="middle" x="480.5" y="-119.5" font-family="Helvetica,sans-Serif" font-size="10.00">SC2APIUnitFilterFlag.h</text>
</a>
</g>
</g>
<!-- Node1&#45;&gt;Node9 -->
<g id="edge9" class="edge"><title>Node1&#45;&gt;Node9</title>
<path fill="none" stroke="midnightblue" d="M436.245,-168.399C444.847,-159.575 455.952,-148.183 464.886,-139.018"/>
<polygon fill="midnightblue" stroke="midnightblue" points="467.586,-141.262 472.06,-131.658 462.574,-136.375 467.586,-141.262"/>
</g>
<!-- Node14 -->
<g id="node14" class="node"><title>Node14</title>
<polygon fill="white" stroke="#bfbfbf" points="557.5,-112.5 557.5,-131.5 587.5,-131.5 587.5,-112.5 557.5,-112.5"/>
<text text-anchor="middle" x="572.5" y="-119.5" font-family="Helvetica,sans-Serif" font-size="10.00">set</text>
</g>
<!-- Node1&#45;&gt;Node14 -->
<g id="edge14" class="edge"><title>Node1&#45;&gt;Node14</title>
<path fill="none" stroke="midnightblue" d="M458.048,-168.399C485.641,-157.454 523.194,-142.558 547.638,-132.862"/>
<polygon fill="midnightblue" stroke="midnightblue" points="549.239,-135.992 557.244,-129.052 546.658,-129.485 549.239,-135.992"/>
</g>
<!-- Node3 -->
<g id="node3" class="node"><title>Node3</title>
<polygon fill="white" stroke="#bfbfbf" points="0,-0.5 0,-19.5 95,-19.5 95,-0.5 0,-0.5"/>
<text text-anchor="middle" x="47.5" y="-7.5" font-family="Helvetica,sans-Serif" font-size="10.00">zycore/Signal.hpp</text>
</g>
<!-- Node2&#45;&gt;Node3 -->
<g id="edge2" class="edge"><title>Node2&#45;&gt;Node3</title>
<path fill="none" stroke="midnightblue" d="M259.826,-58.3785C218.939,-49.2549 144.789,-32.709 95.8376,-21.7861"/>
<polygon fill="midnightblue" stroke="midnightblue" points="96.3178,-18.3072 85.7955,-19.5453 94.7932,-25.1392 96.3178,-18.3072"/>
</g>
<!-- Node4 -->
<g id="node4" class="node"><title>Node4</title>
<polygon fill="white" stroke="#bfbfbf" points="113.5,-0.5 113.5,-19.5 217.5,-19.5 217.5,-0.5 113.5,-0.5"/>
<text text-anchor="middle" x="165.5" y="-7.5" font-family="Helvetica,sans-Serif" font-size="10.00">zycore/Optional.hpp</text>
</g>
<!-- Node2&#45;&gt;Node4 -->
<g id="edge3" class="edge"><title>Node2&#45;&gt;Node4</title>
<path fill="none" stroke="midnightblue" d="M269.852,-56.4435C249.535,-47.5961 217.597,-33.6875 194.402,-23.5865"/>
<polygon fill="midnightblue" stroke="midnightblue" points="195.622,-20.3002 185.056,-19.5164 192.827,-26.7181 195.622,-20.3002"/>
</g>
<!-- Node5 -->
<g id="node5" class="node"><title>Node5</title>
<polygon fill="white" stroke="#bfbfbf" points="235.5,-0.5 235.5,-19.5 343.5,-19.5 343.5,-0.5 235.5,-0.5"/>
<text text-anchor="middle" x="289.5" y="-7.5" font-family="Helvetica,sans-Serif" font-size="10.00">zycore/Singleton.hpp</text>
</g>
<!-- Node2&#45;&gt;Node5 -->
<g id="edge4" class="edge"><title>Node2&#45;&gt;Node5</title>
<path fill="none" stroke="midnightblue" d="M289.5,-56.083C289.5,-49.0059 289.5,-38.8611 289.5,-29.9865"/>
<polygon fill="midnightblue" stroke="midnightblue" points="293,-29.751 289.5,-19.7511 286,-29.7511 293,-29.751"/>
</g>
<!-- Node6 -->
<g id="node6" class="node"><title>Node6</title>
<polygon fill="white" stroke="#bfbfbf" points="362,-0.5 362,-19.5 485,-19.5 485,-0.5 362,-0.5"/>
<text text-anchor="middle" x="423.5" y="-7.5" font-family="Helvetica,sans-Serif" font-size="10.00">zycore/SignalObject.hpp</text>
</g>
<!-- Node2&#45;&gt;Node6 -->
<g id="edge5" class="edge"><title>Node2&#45;&gt;Node6</title>
<path fill="none" stroke="midnightblue" d="M310.733,-56.4435C332.884,-47.5171 367.819,-33.4387 392.936,-23.3168"/>
<polygon fill="midnightblue" stroke="midnightblue" points="394.4,-26.5006 402.367,-19.5164 391.783,-20.0079 394.4,-26.5006"/>
</g>
<!-- Node7&#45;&gt;Node2 -->
<g id="edge7" class="edge"><title>Node7&#45;&gt;Node2</title>
<path fill="none" stroke="midnightblue" d="M353.289,-112.324C341.724,-104.107 324.125,-91.6017 310.339,-81.8069"/>
<polygon fill="midnightblue" stroke="midnightblue" points="312.112,-78.7729 301.933,-75.8339 308.057,-84.4791 312.112,-78.7729"/>
</g>
<!-- Node8 -->
<g id="node8" class="node"><title>Node8</title>
<g id="a_node8"><a xlink:href="_handle_id_8h.html" target="_top" xlink:title="HandleId.h">
<polygon fill="white" stroke="black" points="337.5,-56.5 337.5,-75.5 399.5,-75.5 399.5,-56.5 337.5,-56.5"/>
<text text-anchor="middle" x="368.5" y="-63.5" font-family="Helvetica,sans-Serif" font-size="10.00">HandleId.h</text>
</a>
</g>
</g>
<!-- Node7&#45;&gt;Node8 -->
<g id="edge8" class="edge"><title>Node7&#45;&gt;Node8</title>
<path fill="none" stroke="midnightblue" d="M365.995,-112.083C366.389,-105.006 366.952,-94.8611 367.445,-85.9865"/>
<polygon fill="midnightblue" stroke="midnightblue" points="370.954,-85.9299 368.014,-75.7511 363.964,-85.5415 370.954,-85.9299"/>
</g>
<!-- Node10 -->
<g id="node10" class="node"><title>Node10</title>
<g id="a_node10"><a xlink:href="_s_c2_a_p_i_unit_filter_flag_8dependency_8h.html" target="_top" xlink:title="SC2APIUnitFilterFlag.dependency.h">
<polygon fill="white" stroke="black" points="480,-56.5 480,-75.5 653,-75.5 653,-56.5 480,-56.5"/>
<text text-anchor="middle" x="566.5" y="-63.5" font-family="Helvetica,sans-Serif" font-size="10.00">SC2APIUnitFilterFlag.dependency.h</text>
</a>
</g>
</g>
<!-- Node9&#45;&gt;Node10 -->
<g id="edge10" class="edge"><title>Node9&#45;&gt;Node10</title>
<path fill="none" stroke="midnightblue" d="M494.317,-112.324C507.733,-103.9 528.324,-90.9709 544.086,-81.0741"/>
<polygon fill="midnightblue" stroke="midnightblue" points="546.109,-83.9364 552.717,-75.6545 542.387,-78.0081 546.109,-83.9364"/>
</g>
<!-- Node11 -->
<g id="node11" class="node"><title>Node11</title>
<polygon fill="white" stroke="#bfbfbf" points="503.5,-0.5 503.5,-19.5 549.5,-19.5 549.5,-0.5 503.5,-0.5"/>
<text text-anchor="middle" x="526.5" y="-7.5" font-family="Helvetica,sans-Serif" font-size="10.00">cstdint</text>
</g>
<!-- Node10&#45;&gt;Node11 -->
<g id="edge11" class="edge"><title>Node10&#45;&gt;Node11</title>
<path fill="none" stroke="midnightblue" d="M559.895,-56.083C554.245,-48.4554 545.955,-37.2645 539.049,-27.9408"/>
<polygon fill="midnightblue" stroke="midnightblue" points="541.747,-25.7034 532.982,-19.7511 536.122,-29.87 541.747,-25.7034"/>
</g>
<!-- Node12 -->
<g id="node12" class="node"><title>Node12</title>
<polygon fill="white" stroke="#bfbfbf" points="568,-0.5 568,-19.5 645,-19.5 645,-0.5 568,-0.5"/>
<text text-anchor="middle" x="606.5" y="-7.5" font-family="Helvetica,sans-Serif" font-size="10.00">Shared/Flag.h</text>
</g>
<!-- Node10&#45;&gt;Node12 -->
<g id="edge12" class="edge"><title>Node10&#45;&gt;Node12</title>
<path fill="none" stroke="midnightblue" d="M573.105,-56.083C578.755,-48.4554 587.045,-37.2645 593.951,-27.9408"/>
<polygon fill="midnightblue" stroke="midnightblue" points="596.878,-29.87 600.018,-19.7511 591.253,-25.7034 596.878,-29.87"/>
</g>
<!-- Node13 -->
<g id="node13" class="node"><title>Node13</title>
<polygon fill="white" stroke="#bfbfbf" points="663.5,-0.5 663.5,-19.5 725.5,-19.5 725.5,-0.5 663.5,-0.5"/>
<text text-anchor="middle" x="694.5" y="-7.5" font-family="Helvetica,sans-Serif" font-size="10.00">type_traits</text>
</g>
<!-- Node10&#45;&gt;Node13 -->
<g id="edge13" class="edge"><title>Node10&#45;&gt;Node13</title>
<path fill="none" stroke="midnightblue" d="M586.782,-56.4435C607.847,-47.5566 641.017,-33.5632 664.986,-23.4514"/>
<polygon fill="midnightblue" stroke="midnightblue" points="666.46,-26.6283 674.313,-19.5164 663.739,-20.1787 666.46,-26.6283"/>
</g>
</g>
</svg>
