<?xml version="1.0" encoding="UTF-8" standalone="no"?>
<!DOCTYPE svg PUBLIC "-//W3C//DTD SVG 1.1//EN"
 "http://www.w3.org/Graphics/SVG/1.1/DTD/svg11.dtd">
<!-- Generated by graphviz version 2.38.0 (20140413.2041)
 -->
<!-- Title: SC2API/include/SC2APIGame.h Pages: 1 -->
<svg width="352pt" height="140pt"
 viewBox="0.00 0.00 351.50 140.00" xmlns="http://www.w3.org/2000/svg" xmlns:xlink="http://www.w3.org/1999/xlink">
<g id="graph0" class="graph" transform="scale(1 1) rotate(0) translate(4 136)">
<title>SC2API/include/SC2APIGame.h</title>
<polygon fill="white" stroke="none" points="-4,4 -4,-136 347.5,-136 347.5,4 -4,4"/>
<!-- Node1 -->
<g id="node1" class="node"><title>Node1</title>
<polygon fill="#bfbfbf" stroke="black" points="35,-112.5 35,-131.5 192,-131.5 192,-112.5 35,-112.5"/>
<text text-anchor="middle" x="113.5" y="-119.5" font-family="Helvetica,sans-Serif" font-size="10.00">SC2API/include/SC2APIGame.h</text>
</g>
<!-- Node2 -->
<g id="node2" class="node"><title>Node2</title>
<g id="a_node2"><a xlink:href="_s_c2_a_p_i_8h.html" target="_top" xlink:title="SC2API.h">
<polygon fill="white" stroke="black" points="121,-56.5 121,-75.5 180,-75.5 180,-56.5 121,-56.5"/>
<text text-anchor="middle" x="150.5" y="-63.5" font-family="Helvetica,sans-Serif" font-size="10.00">SC2API.h</text>
</a>
</g>
</g>
<!-- Node1&#45;&gt;Node2 -->
<g id="edge1" class="edge"><title>Node1&#45;&gt;Node2</title>
<path fill="none" stroke="midnightblue" d="M119.61,-112.083C124.782,-104.534 132.346,-93.4948 138.694,-84.2298"/>
<polygon fill="midnightblue" stroke="midnightblue" points="141.739,-85.9787 144.504,-75.7511 135.964,-82.0221 141.739,-85.9787"/>
</g>
<!-- Node3 -->
<g id="node3" class="node"><title>Node3</title>
<polygon fill="white" stroke="#bfbfbf" points="0,-0.5 0,-19.5 95,-19.5 95,-0.5 0,-0.5"/>
<text text-anchor="middle" x="47.5" y="-7.5" font-family="Helvetica,sans-Serif" font-size="10.00">zycore/Signal.hpp</text>
</g>
<!-- Node1&#45;&gt;Node3 -->
<g id="edge5" class="edge"><title>Node1&#45;&gt;Node3</title>
<path fill="none" stroke="midnightblue" d="M108.321,-112.368C97.4774,-94.2957 72.2058,-52.1764 57.8844,-28.3074"/>
<polygon fill="midnightblue" stroke="midnightblue" points="60.8011,-26.3656 52.6549,-19.5914 54.7986,-29.9671 60.8011,-26.3656"/>
</g>
<!-- Node2&#45;&gt;Node3 -->
<g id="edge2" class="edge"><title>Node2&#45;&gt;Node3</title>
<path fill="none" stroke="midnightblue" d="M133.951,-56.324C117.508,-47.7034 92.0652,-34.3643 73.0316,-24.3855"/>
<polygon fill="midnightblue" stroke="midnightblue" points="74.4895,-21.198 64.0077,-19.6545 71.2391,-27.3977 74.4895,-21.198"/>
</g>
<!-- Node4 -->
<g id="node4" class="node"><title>Node4</title>
<polygon fill="white" stroke="#bfbfbf" points="113.5,-0.5 113.5,-19.5 217.5,-19.5 217.5,-0.5 113.5,-0.5"/>
<text text-anchor="middle" x="165.5" y="-7.5" font-family="Helvetica,sans-Serif" font-size="10.00">zycore/Optional.hpp</text>
</g>
<!-- Node2&#45;&gt;Node4 -->
<g id="edge3" class="edge"><title>Node2&#45;&gt;Node4</title>
<path fill="none" stroke="midnightblue" d="M152.977,-56.083C154.986,-48.8486 157.886,-38.4087 160.39,-29.3968"/>
<polygon fill="midnightblue" stroke="midnightblue" points="163.765,-30.323 163.069,-19.7511 157.02,-28.4495 163.765,-30.323"/>
</g>
<!-- Node5 -->
<g id="node5" class="node"><title>Node5</title>
<polygon fill="white" stroke="#bfbfbf" points="235.5,-0.5 235.5,-19.5 343.5,-19.5 343.5,-0.5 235.5,-0.5"/>
<text text-anchor="middle" x="289.5" y="-7.5" font-family="Helvetica,sans-Serif" font-size="10.00">zycore/Singleton.hpp</text>
</g>
<!-- Node2&#45;&gt;Node5 -->
<g id="edge4" class="edge"><title>Node2&#45;&gt;Node5</title>
<path fill="none" stroke="midnightblue" d="M172.525,-56.4435C195.604,-47.4776 232.062,-33.314 258.141,-23.1827"/>
<polygon fill="midnightblue" stroke="midnightblue" points="259.524,-26.4002 267.578,-19.5164 256.989,-19.8753 259.524,-26.4002"/>
</g>
</g>
</svg>
